<?xml version="1.0" encoding="UTF-8" standalone="no"?>
<!-- Created with Inkscape (http://www.inkscape.org/) -->

<svg
   version="1.1"
   id="svg1"
   width="2816"
   height="1536"
   viewBox="0 0 2816 1536"
   sodipodi:docname="Gemini_Generated_Image_7a3ixo7a3ixo7a3i.png"
   xmlns:inkscape="http://www.inkscape.org/namespaces/inkscape"
   xmlns:sodipodi="http://sodipodi.sourceforge.net/DTD/sodipodi-0.dtd"
   xmlns="http://www.w3.org/2000/svg"
   xmlns:svg="http://www.w3.org/2000/svg">
  <defs
     id="defs1" />
  <sodipodi:namedview
     id="namedview1"
     pagecolor="#ffffff"
     bordercolor="#000000"
     borderopacity="0.25"
     inkscape:showpageshadow="2"
     inkscape:pageopacity="0.0"
     inkscape:pagecheckerboard="0"
     inkscape:deskcolor="#d1d1d1"
     showgrid="false">
    <inkscape:page
       x="0"
       y="0"
       width="2816"
       height="1536"
       id="page2"
       margin="0"
       bleed="0" />
  </sodipodi:namedview>
  <g
     inkscape:groupmode="layer"
     inkscape:label="Image"
     id="g1"
     style="display:inline"
     sodipodi:insensitive="true">
    <g
       id="g9"
       style="display:inline"
       sodipodi:insensitive="true">
      <path
         style="fill:#f6e9c5"
         d="m 1401.5,1260.4644 c -0.55,-0.2077 -10.675,-0.8422 -22.5,-1.41 -25.2547,-1.2125 -46.1932,-3.92 -61.5,-7.9523 -6.05,-1.5938 -20.675,-5.4028 -32.5,-8.4645 -33.8934,-8.7755 -42.3789,-11.9207 -75,-27.7992 -11.275,-5.4882 -22.75,-10.9397 -25.5,-12.1144 -22.9487,-9.8032 -93.0558,-62.7513 -112.5114,-84.974 -5.46,-6.2365 -6.5172,-6.0551 -14.5744,2.5 -12.2793,13.038 -26.2775,25.75 -28.3554,25.75 -3.5935,0 -8.1289,-15.0578 -13.0582,-43.3549 -1.1358,-6.5203 -3.3854,-17.7703 -4.9992,-25 -1.6137,-7.2298 -3.6377,-17.8701 -4.4978,-23.6451 -0.8601,-5.775 -3.0913,-17.025 -4.9583,-25 -5.31862,-22.7189 -5.47608,-30 -0.6488,-30 2.5592,0 23.7659,4.3049 29.6035,6.0095 9.9646,2.9096 13.5958,3.6774 26,5.4977 12.9117,1.8948 25.2365,4.8674 31.3771,7.5679 5.3952,2.3726 4.911,2.4465 5.4066,-0.8251 0.3351,-2.2121 0.4459,-2.0164 0.5665,1 0.082,2.0625 -0.066,3.75 -0.3291,3.75 -0.2635,0 -3.7518,-1.0986 -7.7519,-2.4414 -4.0001,-1.3428 -16.0471,-4.2417 -26.7711,-6.442 -10.7239,-2.2002 -26.0231,-5.614 -33.9981,-7.586 -29.89617,-7.39284 -28.9547,-8.6179 -21.1103,27.4694 2.2117,10.175 5.1513,24.35 6.5325,31.5 11.1242,57.5904 16.16,79.5589 18.4037,80.287 0.7334,0.238 9.0167,-7.2151 18.5362,-16.6784 20.6148,-20.4932 16.5194,-20.2364 35.4744,-2.2246 51.8676,49.2866 110.4966,85.0096 175.9651,107.2166 13.0739,4.4347 37.4462,10.8344 65.6984,17.2512 141.8131,32.2092 312.9308,-23.6816 427.1268,-139.5089 36.9576,-37.4855 62.9442,-73.0835 86.2291,-118.12148 23.2852,-45.03877 35.3564,-81.43525 45.6141,-137.53292 6.7323,-36.81801 10.0197,-98.08306 6.5565,-122.1885 -0.5136,-3.575 -1.8747,-14.79103 -3.0247,-24.92452 -1.15,-10.13348 -2.9378,-22.50848 -3.9729,-27.5 -1.035,-4.99151 -2.6308,-13.10237 -3.5461,-18.02413 -1.8042,-9.70158 -14.8995,-55.87825 -18.9306,-66.75324 -3.0936,-8.3458 -21.4152,-49.88346 -22.6936,-51.44952 C 1836.1563,542.26316 1784.7665,531 1776.9537,531 c -3.9276,0 -0.9515,7.50066 13.1054,33.02921 78.3511,142.29306 63.1998,340.80012 -35.6872,467.56159 -23.4856,30.1059 -45.1652,53.6406 -59.3719,64.4526 -2.475,1.8836 -10.35,8.4033 -17.5,14.4882 -15.2391,12.969 -30.3057,23.5358 -47,32.9629 -6.6,3.727 -13.8,8.008 -16,9.5133 -7.3728,5.0448 -37.8774,19.7061 -49.7041,23.8891 -6.4373,2.2768 -15.2123,5.6398 -19.5,7.4732 -42.7075,18.2617 -125.3274,27.9217 -180.2959,21.0803 -35.6912,-4.4421 -73.5037,-13.3622 -97,-22.8826 -5.775,-2.34 -14.325,-5.7394 -19,-7.5543 -15.7441,-6.112 -43.5547,-20.6867 -64.5,-33.8025 -7.3355,-4.5934 -36.2059,-25.1517 -37.4844,-26.6922 -1.1002,-1.3257 -0.641,-1.4998 3.612,-1.369 2.9197,0.09 3.7703,0.3168 2.1224,0.5665 -3.9489,0.5982 -3.5272,1.2758 3.9152,6.2916 3.6658,2.4707 10.7533,7.5209 15.75,11.2228 4.9966,3.7019 13.3598,9.0564 18.5848,11.899 5.225,2.8425 12.2,6.8428 15.5,8.8895 11.6815,7.2449 34.4919,18.2397 45.7647,22.0589 3.1706,1.0742 10.3594,3.9902 15.9751,6.4801 9.4561,4.1926 18.4332,7.024 45.7602,14.4329 51.2105,13.8841 152.469,12.9017 199.2542,-1.9332 5.0852,-1.6124 12.1295,-3.6658 15.654,-4.5631 3.5245,-0.8974 9.8294,-3.3517 14.0109,-5.4541 4.1815,-2.1025 12.9506,-5.4921 19.4868,-7.5325 14.2638,-4.4527 38.2876,-15.6868 47.3023,-22.1195 3.5856,-2.5587 12.7077,-7.9038 20.2713,-11.8779 17.2157,-9.0458 30.507,-18.267 44.1307,-30.6168 5.8356,-5.2899 13.2606,-11.5797 16.5,-13.9772 9.7592,-7.2228 37.9799,-34.5862 41.9866,-40.7111 2.0529,-3.1381 6.047,-8.4057 8.8758,-11.7057 33.0031,-38.5005 63.7256,-94.65823 75.0306,-137.14871 1.4416,-5.41821 4.8106,-16.60129 7.4866,-24.85129 12.2696,-37.82574 19.2536,-131.23229 12.1502,-162.5 -0.5623,-2.475 -1.7361,-10.125 -2.6084,-17 -2.3898,-18.83462 -5.1357,-31.36226 -10.1127,-46.13718 -2.4757,-7.34955 -6.0292,-18.08782 -7.8966,-23.86282 -13.2126,-40.86055 -18.071,-52.80995 -26.6739,-65.60513 -21.1295,-31.42607 -20.8361,-39.55327 1.3198,-36.5601 8.4325,1.13919 18.3591,2.32888 22.0591,2.64377 15.9429,1.35678 26.9421,6.5046 29.343,13.73307 2.6823,8.07571 11.1374,25.68754 15.1059,31.46554 3.6043,5.24767 6.7676,14.45081 12.3129,35.82285 9.6298,37.11355 12.2207,47.81389 13.5418,55.92719 0.8126,4.99004 2.1671,11.32281 3.0101,14.07281 0.843,2.75 2.4264,13.04328 3.5187,22.87396 1.0923,9.83068 2.4147,19.73068 2.9387,22 2.6605,11.52194 0.6319,86.49253 -2.8716,106.12604 -6.1953,34.71827 -16.029,78.80128 -19.2217,86.1678 -1.1518,2.65771 -3.4456,8.6572 -5.0972,13.3322 -9.3424,26.44433 -33.471,76.6423 -43.5461,90.5948 -2.7424,3.7978 -8.2593,12.0802 -12.2596,18.4052 -12.0997,19.1308 -13.5638,21.1288 -23.0086,31.3996 -5.0069,5.4448 -10.415,11.8059 -12.0179,14.1358 -1.603,2.3298 -7.158,8.225 -12.3444,13.1003 -5.1863,4.8754 -12.9158,12.8582 -17.1766,17.7396 -4.2608,4.8814 -11.5883,11.8564 -16.2833,15.5 -4.6951,3.6436 -12.438,9.9997 -17.2066,14.1247 -15.3181,13.2508 -41.6721,32.2207 -52.2313,37.5967 -3.7216,1.8948 -9.7966,5.3057 -13.5,7.5799 -3.7034,2.2742 -9.4335,5.5626 -12.7335,7.3077 -3.3,1.7451 -10.2314,5.5377 -15.4031,8.428 -10.2256,5.7147 -33.29,15.5602 -47.5969,20.3176 -4.95,1.646 -13.05,4.5368 -18,6.4239 -17.1111,6.5234 -58.3963,16.3292 -75,17.8135 -4.4,0.3934 -10.1756,1.1197 -12.8347,1.6141 -14.7814,2.7484 -57.6668,5.0821 -62.1653,3.383 z m -32,-228.0779 c -12.027,-1.2402 -24.7657,-3.7625 -32.4648,-6.4282 -9.4288,-3.2644 -13.1884,-3.8248 -16.9838,-2.5317 -2.4487,0.8343 -2.4487,0.8343 0.2863,-2.416 17.0394,-20.2503 7.7816,-38.66129 -36.3377,-72.26423 -36.1435,-27.5283 -44.7146,-35.36649 -51.9014,-47.46367 -19.5858,-32.96789 -14.6162,-78.14668 13.6434,-124.0327 6.1175,-9.93325 6.0768,-9.11253 -0.1739,3.5 -21.0544,42.48363 -22.0332,89.51961 -2.3925,114.97755 6.9768,9.04326 7.4162,8.28758 8.1286,-13.97755 1.1471,-35.85089 8.0484,-61.76362 27.3183,-102.57331 22.345,-47.32234 35.2828,-85.16623 39.8773,-116.64364 1.7375,-11.90409 6.5002,-15.91612 6.5002,-5.47573 0,3.05098 13.6184,22.42771 21.2997,30.30589 18.016,18.47783 43.691,22.0227 69.4176,9.58426 7.5822,-3.66589 36.2827,-28.09914 36.2827,-30.88809 0,-0.41033 4.5,-5.4094 10,-11.10905 5.5,-5.69964 10,-11.17014 10,-12.15666 0,-5.18763 2.1579,-0.41969 4.5061,9.95633 6.6277,29.28559 13.998,48.25988 35.3418,90.98464 29.8056,59.66312 38.4915,84.15113 42.2092,118.99894 1.4681,13.76137 1.171,13.50032 12.8048,11.25189 25.419,-4.91262 19.9694,-67.59384 -9.811,-112.8472 -7.4376,-11.30188 -7.2899,-12.64531 0.3778,-3.43796 27.9623,33.57675 39.0188,69.99027 33.4192,110.06296 -1.3458,9.63116 -1.7578,8.86029 5.7507,10.76197 22.2579,5.63725 41.6195,24.02973 41.3311,39.26227 -0.1247,6.58506 -1.5652,8.35787 -2.1178,2.60636 -1.1514,-11.98271 -7.905,-19.02245 -27.3119,-28.4691 -30.4312,-14.81291 -58.2111,-10.08757 -68.1353,11.58977 -1.9666,4.2956 -3.003,5.48546 -4.7783,5.48546 -15.2512,0 -29.3017,21.28395 -33.6409,50.96016 -0.9416,6.43943 -1.8029,8.96481 -3.8901,11.4053 -1.4744,1.724 -3.8587,5.15954 -5.2984,7.63454 -5.6194,9.66044 -30.0134,31.1223 -42.5047,37.3958 -10.1413,5.0932 -29.3325,11.9998 -39.4202,14.1866 -7.1318,1.546 -32.9193,2.6716 -41.3321,1.8041 z M 1011,975.96306 c -4.675,-1.03629 -14.11591,-2.84692 -20.9798,-4.02363 -23.52697,-4.03332 -25.67654,-5.59084 -32.90664,-23.84325 C 941.85765,909.58257 935.87202,885.72645 926.60443,826.5 c -4.00517,-25.59586 -4.6819,-83.34252 -1.26565,-108 0.91441,-6.6 2.16052,-15.6 2.76913,-20 1.47788,-10.68453 8.44926,-45.22785 9.88895,-49 0.62975,-1.65 2.6743,-8.85 4.54345,-16 9.13406,-34.94031 12.22598,-43.85296 21.9253,-63.20103 4.6623,-9.3003 10.97077,-22.91795 14.01882,-30.26146 3.04805,-7.34352 7.47783,-16.31862 9.84395,-19.94468 2.36611,-3.62606 6.04607,-9.51783 8.17769,-13.09283 2.13161,-3.575 5.70223,-8.90345 7.93483,-11.841 2.2325,-2.93756 6.7591,-9.06887 10.0591,-13.62514 3.3,-4.55627 8.8077,-11.82782 12.2394,-16.159 3.4317,-4.33117 10.984,-14.26156 16.7828,-22.06754 10.0265,-13.49684 23.6834,-27.3144 42.799,-43.30235 2.2984,-1.92227 9.2307,-8.10963 15.4052,-13.7497 7.836,-7.15775 17.047,-14.06495 30.5,-22.87145 10.6005,-6.93923 20.6236,-13.57687 22.2736,-14.7503 15.0321,-10.69039 32.5279,-20.44461 47.5,-26.48199 4.125,-1.66338 14.25,-6.0284 22.5,-9.70006 24.0178,-10.68911 41.6566,-16.30901 78,-24.85168 5.5,-1.2928 13.0742,-3.30332 16.8316,-4.46783 12.0802,-3.74397 45.0643,-6.9564 79.6684,-7.75918 35.3919,-0.82104 83.4001,3.02686 95.5907,7.66169 1.4017,0.53296 5.7798,1.4508 9.729,2.03965 11.6629,1.739 41.3262,9.5811 53.1803,14.05929 6.05,2.28554 15.95,6.08999 22,8.45433 6.05,2.36434 13.6472,4.97218 16.8826,5.79521 3.2354,0.82303 8.4846,3.10249 11.6648,5.06547 3.1803,1.96298 10.5448,5.79289 16.3655,8.5109 5.8207,2.71801 12.4965,6.2499 14.8351,7.84865 2.3386,1.59874 10.777,6.47486 18.752,10.83583 15.8905,8.68941 36.9462,23.17787 49.636,34.15472 22.371,19.35124 18.9713,19.47963 41.114,-1.55268 20.409,-19.38558 20.3516,-19.36564 24.3704,-8.46097 1.4766,4.00667 3.372,8.73296 4.2118,10.50286 1.5169,3.19659 2.1779,6.56918 5.2353,26.71227 2.1609,14.23629 5.5809,28.49135 9.726,40.53937 4.3612,12.67612 8.1206,29.4387 10.1705,45.34872 2.2824,17.71531 2.0132,17.93184 -16.964,13.64312 -9.6534,-2.1816 -29.7353,-6.25089 -74.5,-15.09626 -6.875,-1.35848 -16.775,-3.57648 -22,-4.9289 -5.225,-1.35241 -13.0814,-2.95654 -17.4587,-3.56474 -18.7538,-2.6057 -19.5666,-6.96042 -4.1792,-22.38904 C 1681.7245,446.1515 1686,441.20043 1686,438.9695 c 0,-6.64954 -34.9515,-34.2492 -55.5,-43.82595 -3.85,-1.79431 -10.15,-5.66048 -14,-8.59148 -9.1704,-6.98141 -32.1459,-18.39313 -47.0979,-23.39309 -6.5461,-2.18904 -17.9379,-6.52859 -25.3151,-9.64345 -71.032,-29.99195 -200.3129,-30.01247 -271.587,-0.0431 -4.95,2.08138 -12.825,5.32886 -17.5,7.21663 -37.731,15.23579 -42.4993,17.45245 -55.2855,25.7009 -4.6339,2.98939 -11.1363,6.80379 -14.4498,8.47643 -3.3135,1.67265 -8.8911,5.22522 -12.3946,7.8946 -3.5036,2.66938 -9.9701,7.2527 -14.3701,10.18516 -17.2535,11.49893 -42.6357,35.20554 -69.6518,65.05385 -15.8248,17.4838 -20.0945,22.73129 -26.1653,32.15791 -3.0668,4.76185 -6.0521,8.95226 -6.6342,9.31202 -1.9601,1.21137 -8.7135,11.93994 -16.0707,25.53007 -4.0196,7.425 -9.9315,17.83737 -13.1375,23.1386 -9.9715,16.48804 -17.5862,36.14901 -33.25401,85.8614 -6.49327,20.60246 -6.9662,22.63093 -9.09277,39 -0.89315,6.875 -2.5069,17.45 -3.5861,23.5 -7.02488,39.38161 -1.2781,124.5359 11.03408,163.5 2.17242,6.875 5.5685,18.08291 7.54685,24.90646 4.98965,17.20976 14.31965,41.00121 21.48505,54.78641 9.5286,18.3317 8.3082,20.32264 -9.9736,16.27019 z m 14.4796,-0.92997 c 0.3286,-0.5318 -2.3079,-6.9443 -5.8591,-14.25 -8.6731,-17.84301 -18.4854,-43.11023 -23.60458,-60.78309 -2.31007,-7.975 -5.27062,-17.875 -6.579,-22 -14.76606,-46.55381 -17.05384,-120.74588 -5.85883,-190 2.96777,-18.35912 10.7478,-46.47468 19.56051,-70.68806 32.8756,-90.32731 90.5238,-163.47627 172.8614,-219.34143 15.9268,-10.80617 51.5189,-29.33698 70,-36.44505 4.675,-1.79807 12.8332,-5.11351 18.1293,-7.36765 58.2979,-24.81294 147.9633,-32.32429 222.3707,-18.62817 70.039,12.89204 149.406,51.10529 199.25,95.93396 7.2837,6.55078 7.3487,6.39772 -10.7495,25.31382 -17.1921,17.96908 -18.125,19.57924 -12.2505,21.14501 5.1702,1.37806 87.8579,19.19396 114.6504,24.70258 29.4871,6.06266 28.2616,9.89684 14.5831,-45.62501 -3.7263,-15.125 -8.4182,-35.375 -10.4265,-45 -3.4045,-16.31646 -10.736,-44.86261 -12.081,-47.03886 -1.3008,-2.10475 -3.5366,-0.2933 -21.0303,17.03886 -21.6225,21.42284 -16.8582,20.83781 -36.5677,4.49024 -100.1472,-83.06432 -237.1374,-122.5099 -366.4578,-105.51954 -14.0395,1.84454 -20.9873,3.32571 -59.4202,12.66754 -64.0407,15.56625 -135.9906,53.51199 -187.46,98.86472 -31.3775,27.64856 -47.9797,45.27405 -71.1142,75.49704 -105.18775,137.41777 -131.30696,320.14013 -68.54204,479.5 7.03071,17.85096 5.83406,16.85167 25.13896,20.99287 6.86251,1.47212 17.20228,3.72521 22.97728,5.00687 11.4263,2.53588 17.5461,3.04367 18.4796,1.53335 z m 291.6392,-400.13595 c -20.1311,-21.60815 -7.4293,-76.35574 17.0628,-73.54486 22.2591,2.5546 38.7096,51.64772 17.3065,51.64772 -0.1417,0 -0.5593,-2.5875 -0.928,-5.75 -3.8197,-32.76168 -32.2517,-32.98387 -31.9909,-0.25 0.069,8.6499 3.3957,19.06611 7.0609,22.10793 2.2629,1.87808 1.5795,3.40598 -2.5654,5.73555 -3.9353,2.21177 -3.9353,2.21177 -5.9459,0.0537 z M 1455.5,573.44543 c -4.5327,-1.23523 -4.6262,-1.31474 -1,-0.85069 2.2,0.28154 4.7966,0.74611 5.7702,1.03237 1.3158,0.38688 2.1629,-0.41933 3.2999,-3.14069 1.8188,-4.35293 0.9056,-6.00783 -3.8892,-7.04777 -1.7495,-0.37945 -3.4758,-1.15344 -3.8361,-1.71998 -0.3604,-0.56653 -2.0723,1.6275 -3.8043,4.87564 -3.5571,6.67101 -3.4042,5.81425 0.6414,-3.59431 9.0655,-21.08318 -4.444,-48.30566 -21.4319,-43.18656 -9.7684,2.94359 -15.2195,11.59849 -16.0208,25.43656 -0.2786,4.8125 -0.7706,8.75 -1.0931,8.75 -7.3372,0 -14.135,-5.73344 -14.1187,-11.90799 0.164,-62.27638 69.203,-64.98513 71.7488,-2.81506 0.6516,15.91429 -5.5026,36.46093 -10.6712,35.62705 -0.3272,-0.0528 -2.845,-0.70915 -5.595,-1.45857 z"
         id="path13" />
      <path
         style="fill:#efd79e"
         d="m 1373.5,1256.9847 c -102.7895,-6.4185 -210.648,-55.0669 -290.6635,-131.1007 -18.955,-18.0118 -14.8596,-18.2686 -35.4744,2.2246 -9.5195,9.4633 -17.8028,16.9164 -18.5362,16.6784 -2.2437,-0.7281 -7.2795,-22.6966 -18.4037,-80.287 -1.3812,-7.15 -4.3208,-21.325 -6.5325,-31.5 -7.8444,-36.0873 -8.78587,-34.86224 21.1103,-27.4694 7.975,1.972 23.2742,5.3858 33.9981,7.586 10.724,2.2003 22.771,5.0992 26.7711,6.442 4.0001,1.3428 7.5466,2.4414 7.881,2.4414 0.3345,0 0.3613,-2.8125 0.06,-6.25 -0.5485,-6.25 -0.5485,-6.25 0.7317,0 2.02,9.8652 1.1159,12.5954 -2.9292,8.8465 -2.9807,-2.7625 -10.828,-5.0361 -34.5123,-9.9995 -9.075,-1.9018 -24.2582,-5.2897 -33.7405,-7.5287 -25.74851,-6.0797 -24.6018,-7.12411 -19.1965,17.4844 1.6847,7.6696 5.0246,23.6198 7.422,35.4448 16.3182,80.4872 16.5256,81.3636 19.1286,80.8044 0.7792,-0.1674 8.5236,-7.3919 17.2099,-16.0544 19.6049,-19.5513 16.1754,-19.6079 37.4554,0.6183 19.0024,18.0613 29.1574,26.8074 38.2211,32.9182 3.3,2.2248 7.5598,5.3923 9.4663,7.0387 1.9064,1.6464 8.2064,6.1169 14,9.9343 5.7935,3.8175 12.5587,8.4016 15.0337,10.187 6.1146,4.4108 29.1081,16.9249 36.9608,20.1157 3.5114,1.4268 11.3692,5.0963 17.4618,8.1543 21.4563,10.7696 50.801,21.2021 75.182,26.7285 8.1925,1.857 21.6454,4.9675 29.8954,6.9123 49.0649,11.5661 125.4155,11.5968 178,0.072 110.1834,-24.1497 198.0451,-76.5384 275.0825,-164.0216 9.1831,-10.4283 21.8986,-26.4536 25.0845,-31.614 1.5582,-2.5238 6.3771,-9.9222 10.7087,-16.441 4.3317,-6.5187 9.7916,-14.7772 12.1333,-18.3522 17.2637,-26.35664 42.3995,-86.70966 51.0188,-122.5 20.3949,-84.68775 20.5416,-167.73903 0.4327,-245 -11.7153,-45.01188 -13.979,-51.55387 -30.7632,-88.90325 -7.8972,-17.5734 -4.9198,-15.64136 -33.2393,-21.56918 -37.4415,-7.83721 -36.3264,-9.13147 -18.9314,21.97243 39.217,70.12381 59.9999,180.94232 48.5729,259 -0.7649,5.225 -1.6865,12.2 -2.0479,15.5 -3.344,30.53491 -17.266,79.42159 -32.0379,112.5 -17.2612,38.65254 -33.924,66.0439 -58.0298,95.3929 -2.7589,3.3589 -7.9903,9.9321 -11.6253,14.6071 -6.4471,8.2914 -31.7862,33.6389 -38.8307,38.8435 -4.2793,3.1616 -19.6944,16.0964 -25.9707,21.7921 -5.3715,4.8745 -27.4018,19.8125 -36.9009,25.0212 -3.661,2.0075 -11.3813,6.5861 -17.1563,10.1747 -11.4789,7.133 -39.2646,20.8272 -48,23.6569 -3.025,0.9799 -12.025,4.3629 -20,7.5178 -33.0273,13.0655 -70.3083,20.9117 -112.0153,23.575 -105.6462,6.7461 -205.611,-25.2994 -293.431,-94.0647 -3.2989,-2.5832 -0.6688,-3.867 5.5896,-2.7286 5.3567,0.9745 5.3567,0.9745 0.9843,1.0933 -3.7911,0.103 -4.2049,0.3207 -3.112,1.6376 1.2785,1.5405 30.1489,22.0988 37.4844,26.6922 20.9453,13.1158 48.7559,27.6905 64.5,33.8025 4.675,1.8149 13.225,5.2143 19,7.5543 23.4963,9.5204 61.3088,18.4405 97,22.8826 54.9685,6.8414 137.5884,-2.8186 180.2959,-21.0803 4.2877,-1.8334 13.0627,-5.1964 19.5,-7.4732 11.8267,-4.183 42.3313,-18.8443 49.7041,-23.8891 2.2,-1.5053 9.4,-5.7863 16,-9.5133 16.6943,-9.4271 31.7609,-19.9939 47,-32.9629 7.15,-6.0849 15.025,-12.6046 17.5,-14.4882 23.1302,-17.6032 62.8671,-65.2996 85.0144,-102.0434 76.0625,-126.19232 80.1834,-302.59223 10.0447,-429.97079 C 1776.0022,538.50066 1773.0261,531 1776.9537,531 c 7.8128,0 59.2026,11.26316 60.9049,13.34859 1.2784,1.56606 19.6,43.10372 22.6936,51.44952 4.0311,10.87499 17.1264,57.05166 18.9306,66.75324 0.9153,4.92176 2.5111,13.03262 3.5461,18.02413 1.0351,4.99152 2.8229,17.36652 3.9729,27.5 1.15,10.13349 2.5111,21.34952 3.0247,24.92452 6.8081,47.38714 -6.0244,144.68423 -26.378,200 -26.4872,71.9856 -59.8053,124.8806 -112.0217,177.8429 -102.7358,104.2034 -234.4587,155.1128 -378.1268,146.1418 z M 1104.6403,1071.307 c -1.8133,-1.8133 -0.4077,-10.6908 3.0806,-19.4566 5.0215,-12.6187 5.3947,-30.1995 0.976,-45.9854 -6.87,-24.54374 -1.0883,-33.71926 25.8031,-40.94924 20.6575,-5.55395 28.2256,-10.69228 36.9637,-25.09653 6.1611,-10.15613 11.3992,-16.52628 14.9906,-18.23052 7.8622,-3.73086 13.0743,0.17292 7.7159,5.77906 -1.6466,1.72273 -5.7664,7.59954 -9.155,13.05959 -15.248,24.56868 -21.8866,29.75576 -45.0053,35.16459 -19.2772,4.51008 -21.7985,9.30417 -18.1166,34.44785 3.0654,20.9346 2.3961,31.0935 -2.9988,45.5127 -3.2225,8.6128 -11.8549,18.1538 -14.2542,15.7545 z m 276.7376,-1.4261 c -26.917,-2.8279 -55.2722,-15.4627 -62.8655,-28.0123 -2.2068,-3.6473 -5.749,-8.5404 -7.8715,-10.8736 -3.9054,-4.2932 -3.779,-5.9391 0.4591,-5.9797 7.541,-0.072 15.4816,-13.28 14.6171,-24.3131 -1.3272,-16.93793 -7.3692,-24.1845 -42.1907,-50.6021 -31.238,-23.69894 -44.0681,-35.14875 -50.8359,-45.36671 -22.3696,-33.77354 -17.0135,-84.59403 13.8311,-131.23339 11.3413,-17.14904 13.0168,-16.05303 3.3703,2.20469 -23.9448,45.31965 -26.002,92.68513 -5.2097,119.94536 4.6487,6.09469 4.9945,5.0833 5.6071,-16.40005 1.0783,-37.81038 5.9533,-54.27534 35.1228,-118.62514 17.9501,-39.599 32.5684,-87.55953 32.5847,-106.90624 0,-5.12556 2.2286,-5.83114 6.3191,-2.00454 37.2627,34.85846 61.6105,38.11045 102.7503,13.72374 7.9386,-4.7058 18.4838,-10.49172 23.4338,-12.85759 4.95,-2.36588 12.0419,-6.38928 15.7597,-8.94091 8.7268,-5.98935 8.2449,-6.21808 10.7667,5.11068 7.0598,31.71556 14.0422,50.00482 35.7916,93.75 30.5283,61.40226 38.4549,83.56407 42.4653,118.72705 1.3798,12.09838 15.555,17.93372 21.2359,8.74193 12.8073,-20.7227 1.7926,-74.14536 -23.094,-112.00867 -10.7265,-16.31954 -9.035,-17.39149 3.7678,-2.38773 27.9032,32.70039 40.0842,68.60821 35.7639,105.42742 -0.6777,5.775 -1.2827,11.35615 -1.3445,12.40256 -0.089,1.5112 1.3275,2.35011 6.8876,4.07832 27.7783,8.63415 45.377,29.45254 39.5797,46.82091 -1.7612,5.27653 -3.48,4.12217 -3.6829,-2.47353 -0.361,-11.73287 -5.8982,-18.24241 -23.0364,-27.08156 -31.6672,-16.33267 -66.0006,-10.87344 -70.8636,11.26779 -0.5449,2.48105 -1.4644,3.08461 -7.4855,4.91345 -19.2117,5.83538 -29.091,27.19896 -31.479,68.07206 -3.0564,52.315 -4.4148,58.1066 -15.3121,65.2858 -30.7033,20.2274 -68.3814,29.4258 -104.8423,25.5951 z m 29.4542,-39.2985 c 10.0877,-2.1868 29.2789,-9.0934 39.4202,-14.1866 12.4913,-6.2735 36.8853,-27.73536 42.5047,-37.3958 1.4397,-2.475 3.824,-5.91054 5.2984,-7.63454 2.0872,-2.44049 2.9485,-4.96587 3.8901,-11.4053 C 1506.2847,930.28395 1520.3352,909 1535.5864,909 c 1.7753,0 2.8117,-1.18986 4.7783,-5.48546 15.308,-33.43712 91.9141,-19.88974 95.4472,16.87933 0.5526,5.75151 1.9931,3.9787 2.1178,-2.60636 0.2884,-15.23254 -19.0732,-33.62502 -41.3311,-39.26227 -7.5085,-1.90168 -7.0965,-1.13081 -5.7507,-10.76197 5.5996,-40.07269 -5.4569,-76.48621 -33.4192,-110.06296 -7.6677,-9.20735 -7.8154,-7.86392 -0.3778,3.43796 29.7804,45.25336 35.23,107.93458 9.811,112.8472 -11.6338,2.24843 -11.3367,2.50948 -12.8048,-11.25189 -3.7177,-34.84781 -12.4036,-59.33582 -42.2092,-118.99894 -21.3438,-42.72476 -28.7141,-61.69905 -35.3418,-90.98464 -2.3482,-10.37602 -4.5061,-15.14396 -4.5061,-9.95633 0,0.98652 -4.5,6.45702 -10,12.15666 -5.5,5.69965 -10,10.69872 -10,11.10905 0,2.78895 -28.7005,27.2222 -36.2827,30.88809 -25.7266,12.43844 -51.4016,8.89357 -69.4176,-9.58426 C 1338.6184,679.48503 1325,660.1083 1325,657.05732 c 0,-10.44039 -4.7627,-6.42836 -6.5002,5.47573 -4.5945,31.47741 -17.5323,69.3213 -39.8773,116.64364 -19.2699,40.80969 -26.1712,66.72242 -27.3183,102.57331 -0.7124,22.26513 -1.1518,23.02081 -8.1286,13.97755 -19.6407,-25.45794 -18.6619,-72.49392 2.3925,-114.97755 6.2507,-12.61253 6.2914,-13.43325 0.1739,-3.5 -28.2596,45.88602 -33.2292,91.06481 -13.6434,124.0327 7.1868,12.09718 15.7579,19.93537 51.9014,47.46367 44.1193,33.60294 53.3771,52.01393 36.3377,72.26423 -2.735,3.2503 -2.735,3.2503 -0.2863,2.416 3.7954,-1.2931 7.555,-0.7327 16.9838,2.5317 7.6991,2.6657 20.4378,5.188 32.4648,6.4282 8.4128,0.8675 34.2003,-0.2581 41.3321,-1.8041 z M 1007,973.49974 c -5.775,-1.28166 -16.11477,-3.53475 -22.97728,-5.00687 -19.3049,-4.1412 -18.10825,-3.14191 -25.13896,-20.99287 -16.85583,-42.79686 -23.07742,-68.05106 -29.80942,-121 -16.01602,-125.97017 19.52513,-255.52092 98.35146,-358.5 23.1345,-30.22299 39.7367,-47.84848 71.1142,-75.49704 43.748,-38.54896 105.8687,-73.76019 161.96,-91.80206 10.3385,-3.3254 18.2885,-5.3763 54.9202,-14.16807 127.048,-30.49201 288.1526,10.12669 396.4578,99.95741 19.7095,16.34757 14.9452,16.9326 36.5677,-4.49024 17.4937,-17.33216 19.7295,-19.14361 21.0303,-17.03886 1.345,2.17625 8.6765,30.7224 12.081,47.03886 2.0083,9.625 6.7002,29.875 10.4265,45 13.6785,55.52185 14.904,51.68767 -14.5831,45.62501 -26.7925,-5.50862 -109.4802,-23.32452 -114.6504,-24.70258 -5.8745,-1.56577 -4.9416,-3.17593 12.2505,-21.14501 18.0982,-18.9161 18.0332,-18.76304 10.7495,-25.31382 -108.4859,-97.56993 -294.0648,-131.59654 -421.6207,-77.30579 -5.2961,2.25414 -13.4543,5.56958 -18.1293,7.36765 -18.4811,7.10807 -54.0732,25.63888 -70,36.44505 -73.317,49.74476 -130.4951,117.56591 -162.3161,192.52949 -14.01494,33.01632 -25.90841,71.53419 -30.10581,97.5 -11.19501,69.25412 -8.90723,143.44619 5.85883,190 1.30838,4.125 4.26893,14.025 6.579,22 5.11918,17.67286 14.93148,42.94008 23.60458,60.78309 8.344,17.16589 8.1785,17.33264 -12.6205,12.71665 z m 15.437,-1.74974 c -0.3838,-1.2375 -1.9408,-4.72883 -3.4599,-7.75851 C 986.20217,898.62732 969.38179,812.48236 975.04601,739 c 4.08044,-52.93596 15.19528,-97.9491 36.91519,-149.5 12.5757,-29.84779 37.9718,-72.53619 55.9221,-94 2.7599,-3.3 7.478,-9.15 10.4848,-13 9.2624,-11.85997 44.5623,-46.82677 58.3174,-57.76715 3.952,-3.14331 7.4561,-6.1529 7.7868,-6.68798 0.8344,-1.35016 34.2313,-24.36955 38.5277,-26.55595 1.925,-0.97961 7.775,-4.50188 13,-7.82728 5.225,-3.32539 14.225,-8.14252 20,-10.70473 5.775,-2.5622 13.3231,-6.08749 16.7735,-7.83397 3.4504,-1.74648 11.3254,-5.14544 17.5,-7.55323 6.1746,-2.4078 13.886,-5.57214 17.1364,-7.03187 70.3443,-31.59065 203.0167,-31.13851 284.1531,0.96838 6.5654,2.598 15.4839,6.03252 19.819,7.63224 26.6041,9.81734 80.2511,40.92004 101.7162,58.97164 4.1791,3.51444 10.8166,9.00406 14.75,12.19914 9.1037,7.39476 9.2035,6.89695 -4.1289,20.59809 -27.3123,28.06758 -31.2368,23.25848 29.3975,36.02389 15.7393,3.31361 32.6143,6.96715 37.5,8.119 16.5418,3.89984 47.3273,9.60236 48.3677,8.95935 1.5716,-0.97128 -1.0766,-14.74991 -8.9389,-46.50957 -3.8123,-15.4 -8.5623,-35.875 -10.5556,-45.5 -1.9932,-9.625 -4.3019,-19.975 -5.1303,-23 -1.7988,-6.56846 -6.4973,-21.34364 -6.9572,-21.87813 -0.179,-0.20797 -8.5149,7.55453 -18.5243,17.25 -19.0478,18.45053 -20.8278,19.57745 -24.4732,15.49451 -31.9194,-35.75034 -130.3648,-88.58958 -195.2698,-104.80852 -74.307,-18.56837 -155.9872,-21.27991 -211.1352,-7.00907 -4.125,1.06744 -16.275,3.98588 -27,6.48543 -24.0203,5.59814 -40.5597,11.05482 -62,20.45515 -9.075,3.97885 -20.7129,8.97219 -25.862,11.0963 -20.333,8.38777 -74.2096,42.74959 -95.3333,60.80243 -55.698,47.60077 -96.7998,98.89543 -125.51062,156.63626 -20.29459,40.81474 -27.85471,60.61509 -40.30945,105.57243 -21.78166,78.62434 -17.94818,195.63986 8.89129,271.40321 5.95834,16.81941 14.93828,39.55532 16.25183,41.14728 1.13986,1.38145 13.70984,4.55519 35.35815,8.92742 20.1636,4.07237 20.8623,4.11353 19.9511,1.1753 z m 293.7617,-396.5 c -22.4178,-31.81859 -5.8708,-83.02184 23.9429,-74.08944 16.8864,5.0593 29.6917,44.36028 16.5052,50.65684 -6.6282,3.165 -7.2873,2.66271 -7.8518,-5.98348 -1.0448,-16.00326 -11.6357,-25.88725 -21.375,-19.94824 -9.595,5.85099 -10.4079,29.49205 -1.4468,42.0767 2.7916,3.92036 2.6024,4.64919 -1.9533,7.52508 -4.9851,3.14691 -5.4466,3.1329 -7.8212,-0.23746 z M 1327,571.4383 c 0,-0.65637 -0.6165,-1.70504 -1.3699,-2.33037 -3.6652,-3.04182 -6.9919,-13.45803 -7.0609,-22.10793 -0.2608,-32.73387 28.1712,-32.51168 31.9909,0.25 0.3687,3.1625 0.7863,5.75 0.928,5.75 16.0934,0 9.0069,-40.07472 -8.6823,-49.09906 -26.178,-13.35504 -44.9889,25.6451 -30.1944,62.60122 3.9527,9.87372 14.3886,13.45384 14.3886,4.93614 z m 127.25,2.90432 c -7.0793,-1.67734 -7.1261,-1.78356 -3.8572,-8.74613 6.6159,-14.0917 4.9749,-30.76274 -3.9308,-39.93266 -12.6612,-13.03684 -30.462,-0.15225 -30.462,22.04906 0,7.88269 -0.5839,8.1564 -9.5367,4.47079 -16.6568,-6.8571 -3.8567,-47.53739 18.0367,-57.32277 32.776,-14.6494 61.8741,32.76575 44.0549,71.78705 -2.2854,5.00477 -5.7849,9.44266 -7.3049,9.26378 -0.4125,-0.0485 -3.5625,-0.75465 -7,-1.56912 z m 8.9785,-1.09262 c 26.4119,-30.04321 -1.92,-88.83943 -37.3637,-77.53964 C 1400.3104,503.85738 1390.2209,554 1414.1361,554 c 0.3225,0 0.8145,-3.9375 1.0931,-8.75 0.601,-10.37819 3.2123,-16.8148 8.6447,-21.30761 20.6466,-17.0756 41.0555,15.75374 26.9645,43.37442 -1.0879,2.13235 -1.7352,4.11976 -1.4385,4.41647 0.4331,0.43301 9.2539,2.83276 11.6951,3.18167 0.3273,0.0468 1.2873,-0.70245 2.1335,-1.66495 z"
         id="path12" />
      <path
         style="fill:#f1a023"
         d="m 1376,1255.3495 c -13.9736,-0.7761 -40.2095,-4.6235 -54.5,-7.9922 -8.25,-1.9448 -21.7029,-5.0553 -29.8954,-6.9123 -24.381,-5.5264 -53.7257,-15.9589 -75.182,-26.7285 -6.0926,-3.058 -13.9504,-6.7275 -17.4618,-8.1543 -7.8527,-3.1908 -30.8462,-15.7049 -36.9608,-20.1157 -2.475,-1.7854 -9.2402,-6.3695 -15.0337,-10.187 -5.7936,-3.8174 -12.0936,-8.2879 -14,-9.9343 -1.9065,-1.6464 -6.1663,-4.8139 -9.4663,-7.0387 -9.0637,-6.1108 -19.2187,-14.8569 -38.2211,-32.9182 -21.28,-20.2262 -17.8505,-20.1696 -37.4554,-0.6183 -8.6863,8.6625 -16.4307,15.887 -17.2099,16.0544 -2.603,0.5592 -2.8104,-0.3172 -19.1286,-80.8044 -2.3974,-11.825 -5.7373,-27.7752 -7.422,-35.4448 -5.4053,-24.60851 -6.55201,-23.5641 19.1965,-17.4844 9.4823,2.239 24.6655,5.6269 33.7405,7.5287 23.6843,4.9634 31.5316,7.237 34.5123,9.9995 3.1717,2.9394 3.2443,2.9423 3.782,0.151 0.2383,-1.2375 0.4946,0.518 0.5695,3.9012 0.1034,4.6679 -0.837,9.2494 -3.8997,19 -11.52,36.6757 -0.9261,53.0294 39.7496,61.3605 6.1675,1.2632 10.96,2.7073 10.6499,3.2091 -0.6819,1.1032 -1.004,0.8468 20.1364,16.0258 115.2086,82.7207 265.1959,104.7472 386.5,56.7596 7.975,-3.1549 16.975,-6.5379 20,-7.5178 8.7354,-2.8297 36.5211,-16.5239 48,-23.6569 5.775,-3.5886 13.4953,-8.1672 17.1563,-10.1747 9.4991,-5.2087 31.5294,-20.1467 36.9009,-25.0212 6.2763,-5.6957 21.6914,-18.6305 25.9707,-21.7921 7.0445,-5.2046 32.3836,-30.5521 38.8307,-38.8435 3.635,-4.675 8.8664,-11.2482 11.6253,-14.6071 24.1058,-29.349 40.7686,-56.74036 58.0298,-95.3929 14.7719,-33.07841 28.6939,-81.96509 32.0379,-112.5 0.3614,-3.3 1.283,-10.275 2.0479,-15.5 11.427,-78.05768 -9.3559,-188.87619 -48.5729,-259 -17.395,-31.1039 -18.5101,-29.80964 18.9314,-21.97243 28.3195,5.92782 25.3421,3.99578 33.2393,21.56918 16.7842,37.34938 19.0479,43.89137 30.7632,88.90325 20.1089,77.26097 19.9622,160.31225 -0.4327,245 -8.6193,35.79034 -33.7551,96.14336 -51.0188,122.5 -2.3417,3.575 -7.8016,11.8335 -12.1333,18.3522 -4.3316,6.5188 -9.1505,13.9172 -10.7087,16.441 -20.7479,33.6064 -83.3505,93.5352 -130.167,124.6075 -52.7842,35.033 -104.6899,56.7193 -170,71.0263 -31.7903,6.964 -82.3545,10.2077 -123.5,7.9225 z m 163,-121.0193 c -33.7334,-5.3631 -44.1789,-29.6999 -32.547,-75.8302 2.3577,-9.35 4.7561,-19.025 5.3299,-21.5 1.0433,-4.5 1.0433,-4.5 0.5696,1 -0.6057,7.0335 0.7726,5.105 3.6176,-5.0617 1.4353,-5.129 2.2185,-11.4742 2.5227,-20.4383 0.4413,-13 0.4413,-13 -1.1479,-2.2054 -1.9205,13.0454 -2.9608,13.5561 -1.3959,0.6852 0.6143,-5.0521 1.5491,-19.72893 2.0774,-32.61511 1.3378,-32.63596 3.3588,-40.96274 11.7906,-48.58043 6.9262,-6.2574 10.1345,-5.98079 10.1677,0.87665 0.069,14.24032 12.4574,31.23321 25.7672,35.34418 19.7552,6.10175 38.0845,0.46712 59.0862,-18.16367 7.1873,-6.37589 11.4794,-7.92512 22.0491,-7.95852 14.8776,-0.047 20.5898,6.29862 24.512,27.23025 3.9231,20.9362 9.4994,29.90803 27.1438,43.67215 25.8403,20.1577 17.8238,34.5397 -31.0269,55.6637 -18.7289,8.0987 -33.6961,17.8901 -52.0161,34.0285 -33.1301,29.1847 -52.3538,37.6916 -76.5,33.8527 z m -276.7495,-4.3498 c -8.9684,-1.2328 -21.6679,-5.3154 -37.2148,-11.9635 -31.091,-13.2951 -45.9518,-17.7267 -72.2148,-21.5348 -30.5212,-4.4256 -47.8209,-11.9784 -47.8209,-20.878 0,-0.7923 -0.3015,-2.2261 -0.6699,-3.1864 -0.4199,-1.0942 -0.2799,-1.5047 0.375,-1.0999 10.9407,6.7616 21.5425,-30.3536 17.3003,-60.5654 -3.7014,-26.36076 -1.5112,-30.59487 18.2129,-35.20932 22.888,-5.35464 29.584,-10.60356 44.7969,-35.11572 3.3886,-5.46005 7.5084,-11.33686 9.155,-13.05959 3.4914,-3.65283 2.4405,-7.28468 -2.1607,-7.46745 -5.4868,-0.21794 2.3644,-1.69918 9.5442,-1.80064 16.594,-0.2345 22.6754,7.00586 66.89,79.63673 6.2601,10.28349 23.9222,36.03129 34.365,50.09739 34.0211,45.825 12.4878,89.4385 -40.5582,82.1466 z M 1002.4859,970.5747 c -21.64831,-4.37223 -34.21829,-7.54597 -35.35815,-8.92742 C 965.8142,960.05532 956.83426,937.31941 950.87592,920.5 930.62157,863.32533 922.56468,779.0363 930.94615,712 c 5.40275,-43.21207 7.58095,-53.28597 20.49245,-94.77477 12.3756,-39.76679 38.50255,-93.53638 60.5461,-124.6045 32.0488,-45.16968 56.4138,-72.05521 95.82,-105.73263 21.1237,-18.05284 75.0003,-52.41466 95.3333,-60.80243 5.1491,-2.12411 16.787,-7.11745 25.862,-11.0963 21.4403,-9.40033 37.9797,-14.85701 62,-20.45515 10.725,-2.49955 22.875,-5.41799 27,-6.48543 103.8783,-26.88094 249.4508,2.47063 354.5,71.47732 14.4529,9.49409 46.8335,34.66012 51.905,40.34027 3.6454,4.08294 5.4254,2.95602 24.4732,-15.49451 10.0094,-9.69547 18.3453,-17.45797 18.5243,-17.25 0.4599,0.53449 5.1584,15.30967 6.9572,21.87813 0.8284,3.025 3.1371,13.375 5.1303,23 1.9933,9.625 6.7433,30.1 10.5556,45.5 7.8623,31.75966 10.5105,45.53829 8.9389,46.50957 -1.0404,0.64301 -31.8259,-5.05951 -48.3677,-8.95935 -4.8857,-1.15185 -21.7607,-4.80539 -37.5,-8.119 -60.6343,-12.76541 -56.7098,-7.95631 -29.3975,-36.02389 13.3324,-13.70114 13.2326,-13.20333 4.1289,-20.59809 -3.9334,-3.19508 -10.5709,-8.6847 -14.75,-12.19914 -21.4651,-18.0516 -75.1121,-49.1543 -101.7162,-58.97164 -4.3351,-1.59972 -13.2536,-5.03424 -19.819,-7.63224 -81.1364,-32.10689 -213.8088,-32.55903 -284.1531,-0.96838 -3.2504,1.45973 -10.9618,4.62407 -17.1364,7.03187 -6.1746,2.40779 -14.0496,5.80675 -17.5,7.55323 -3.4504,1.74648 -10.9985,5.27177 -16.7735,7.83397 -5.775,2.56221 -14.775,7.37934 -20,10.70473 -5.225,3.3254 -11.075,6.84767 -13,7.82728 -4.2964,2.1864 -37.6933,25.20579 -38.5277,26.55595 -0.3307,0.53508 -3.8348,3.54467 -7.7868,6.68798 -13.7551,10.94038 -49.055,45.90718 -58.3174,57.76715 -3.0068,3.85 -7.7249,9.7 -10.4848,13 -11.192,13.38265 -23.6396,32.36652 -37.7022,57.5 -70.19862,125.4622 -74.53904,284.68025 -11.204,410.99149 5.879,11.72471 6.9161,11.3107 -16.4912,6.58321 z m 367.5383,-304.17779 c -6.8836,-1.84979 -11.6702,-4.67475 -20.5242,-12.11298 -3.85,-3.23437 -12.3654,-9.6839 -18.9231,-14.3323 -32.1228,-22.77014 -34.1297,-34.03866 -8.7868,-49.33771 5.8905,-3.55594 16.0123,-10.48306 22.493,-15.39359 22.1968,-16.81883 34.2553,-19.64815 53.8231,-12.62876 7.3134,2.62345 9.1681,3.55579 23.9859,12.05746 4.1757,2.39578 13.6257,6.32411 21,8.72962 26.1472,8.52923 31.9079,13.20269 31.9079,25.88573 0,11.52485 -9.4715,20.51699 -35,33.22854 -4.125,2.05399 -12.2998,6.61434 -18.1662,10.13412 -23.1399,13.88372 -37.3407,17.65799 -51.8096,13.76987 z m 22.8386,-24.01052 c 18.645,-4.13153 64.1372,-29.65532 64.1372,-35.98472 0,-3.57797 -3.7783,-2.154 -19.7531,7.44451 -48.0048,28.84401 -73.5553,30.51852 -103.7469,6.79932 -14.7703,-11.60391 -25.4571,-12.23482 -13.0176,-0.76853 22.5291,20.76668 46.543,28.2347 72.3804,22.50942 z"
         id="path11" />
      <path
         style="fill:#38434b"
         d="m 1388.5,1384.3834 c -11.9015,-0.9665 -11.9128,-0.1844 0.25,-17.3378 38.0433,-53.6532 39.621,-56.4949 40.3542,-72.6829 0.7843,-17.317 0.1891,-16.3625 10.2048,-16.3638 12.9139,0 58.4982,-5.1494 71.191,-8.0393 9.6723,-2.2022 9.7564,-2.1461 18.0842,12.0527 5.464,9.3162 5.7065,9.4255 15.5386,7.0055 41.5704,-10.2317 41.1952,-9.9892 39.1306,-25.286 -1.7574,-13.02 -1.7351,-13.0891 4.9253,-15.2508 18.109,-5.8777 63.2723,-26.457 74.7905,-34.0793 5.4232,-3.5889 6.0503,-3.1603 12.6689,8.6615 6.0315,10.773 6.29,12.9523 4.4087,37.1679 -0.5242,6.7479 -1.4522,22.8439 -2.0623,35.7689 -0.61,12.925 -1.2957,24.4372 -1.5238,25.5827 -1.5939,8.003 -92.1233,40.2418 -137.4607,48.9517 -7.425,1.4264 -16.875,3.4264 -21,4.4444 -26.1116,6.444 -99.9371,11.8054 -129.5,9.4046 z m 59.5,-2.4164 c 21.9297,-1.3605 66.3065,-6.8023 68.9884,-8.4599 0.3786,-0.2339 9.5565,-2.2401 20.3952,-4.4582 43.9118,-8.9861 104.0587,-29.1424 132.2904,-44.3329 6.0908,-3.2772 5.4785,0.069 7.4511,-40.716 2.5429,-52.575 2.7927,-48.537 -3.7094,-59.9759 -6.6346,-11.672 -5.3523,-11.0598 -12.5663,-5.9995 -3.1556,2.2136 -7.5291,4.6568 -9.7189,5.4294 -2.1898,0.7726 -10.8775,4.7387 -19.306,8.8136 -12.5347,6.0602 -37.7441,16.5246 -46.2122,19.1828 -1.6682,0.5236 -1.8116,1.2587 -1.2335,6.3211 2.1025,18.4127 2.0893,18.8757 -0.5876,20.6296 -6.4454,4.2233 -39.4361,13.5989 -47.8512,13.5989 -3.0531,0 -3.4436,-0.4768 -12.8985,-15.75 -3.5782,-5.7801 -4.0942,-5.9468 -13.1124,-4.2366 -14.3468,2.7209 -61.8436,7.9732 -72.1791,7.9818 -3.1625,0 -5.7764,0.3423 -5.8087,0.7548 -0.032,0.4125 -0.4026,6.8396 -0.823,14.2824 -0.7644,13.5324 -0.7644,13.5324 -7.5576,24 -12.1357,18.7001 -31.1957,46.4937 -38.3808,55.9676 -2.2942,3.025 -4.1732,5.8128 -4.1756,6.1952 -0.011,1.7641 43.0125,2.2598 66.9957,0.7718 z m -106,-0.4938 c -0.825,-0.1851 -8.25,-1.3037 -16.5,-2.4857 -77.8328,-11.1514 -152.3679,-36.2614 -220.5,-74.2839 -31.0223,-17.3125 -48.7673,-29.0742 -47.0275,-31.1705 1.565,-1.8857 20.7879,-10.413 39.5275,-17.5344 41.1407,-15.6343 43.8037,-17.2548 55.5075,-33.7789 9.0429,-12.7674 7.5529,-12.1789 16.729,-6.6066 9.6382,5.853 37.1427,19.4131 46.6627,23.0054 31.7593,11.9839 29.0084,9.7205 27.5928,22.7036 -1.7485,16.0359 -0.9867,16.6046 33.7166,25.1715 18.3247,4.5236 17.056,4.9318 23.2914,-7.4937 6.2498,-12.4542 4.4014,-11.9045 27.3398,-8.1308 22.4214,3.6886 42.2017,5.9918 59.6602,6.9469 18.7063,1.0234 20.174,16.6837 3.7378,39.8827 -4.9882,7.0407 -13.3552,18.8762 -18.5933,26.3012 -5.2381,7.425 -11.7446,16.5558 -14.459,20.2907 -2.7143,3.7349 -6.1166,9.1349 -7.5606,12 -2.6193,5.1972 -4.4431,6.233 -9.1249,5.1825 z m 7.1502,-5.4985 c 1.5406,-3.2837 6.5093,-10.5245 25.3724,-36.9747 28.5068,-39.9727 26.6044,-35.9241 24.8349,-52.8533 -0.6424,-6.1467 -0.6424,-6.1467 -7.503,-6.1467 -9.244,0 -38.1263,-3.3553 -61.3545,-7.1276 -10.45,-1.6971 -19.8796,-3.1502 -20.9548,-3.229 -1.5144,-0.1111 -2.9785,1.9086 -6.5,8.9666 -7.2212,14.4735 -6.3623,14.1725 -26.7315,9.3669 -33.8644,-7.9895 -34.6686,-8.5682 -34.1361,-24.5646 0.4753,-14.277 0.8273,-13.9864 -29.1776,-24.0919 -2.475,-0.8336 -9.225,-3.9289 -15,-6.8784 -5.775,-2.9496 -13.0441,-6.4617 -16.1536,-7.8048 -3.1095,-1.343 -8.8829,-4.5499 -12.8298,-7.1264 -3.947,-2.5765 -7.3081,-4.5329 -7.4692,-4.3476 -0.1612,0.1852 -1.0343,1.7945 -1.9404,3.5761 -0.906,1.7816 -3.6436,5.4871 -6.0836,8.2343 -2.4399,2.7473 -4.9621,6.0146 -5.6048,7.2607 -0.6427,1.2461 -2.0528,3.2378 -3.1336,4.426 -2.4801,2.7265 -29.259,14.849 -46.0204,20.833 -13.7273,4.9008 -37.0012,15.3763 -37.7843,17.0067 -0.5647,1.1758 16.426,12.5275 31.1695,20.8248 5.6926,3.2036 15.3002,8.6175 21.3502,12.031 58.1511,32.8088 137.7415,59.0394 212.5,70.0333 20.7476,3.0512 21.0641,3.0319 23.1502,-1.4144 z m 355.182,-69.5515 c -0.3328,-0.8672 -0.3283,-7.7297 0.01,-15.25 0.3384,-7.5203 1.1523,-25.3855 1.8088,-39.7005 1.1935,-26.0272 1.1935,-26.0272 -5.4809,-39 -8.5023,-16.5257 -9.033,-14.533 7.0798,-26.586 12.665,-9.4738 34.3562,-27.2007 46.9533,-38.372 6.0639,-5.3775 5.2267,-5.5528 18.725,3.9209 4.3606,3.0604 8.5212,5.5644 9.2459,5.5644 2.4588,0 26.5167,-24.0802 35.1534,-35.1861 1.569,-2.0175 1.3576,-2.4847 -6.9688,-15.4052 -6.9935,-10.8521 -6.9439,-10.3372 -1.6088,-16.6988 12.3845,-14.7673 30.5013,-40.7033 40.3078,-57.7049 6.547,-11.3506 5.4486,-11.1379 19.1208,-3.7024 14.1631,7.7024 17.0559,11.1334 25.8822,30.6974 3.1016,6.875 7.7793,16.325 10.3948,21 20.6334,36.8807 20.1001,33.0974 7.0982,50.352 -50.9801,67.6547 -119.1001,128.4417 -188.3246,168.0518 -17.8393,10.2076 -18.459,10.4638 -19.397,8.0194 z m 18.2627,-9.4924 c 16.1614,-9.0362 24.3601,-14.1031 31.9367,-19.7375 3.4711,-2.5813 12.0354,-8.7433 19.0317,-13.6933 14.3746,-10.1703 32.7207,-24.5238 39.4367,-30.8543 2.475,-2.3329 6.075,-5.4929 8,-7.0221 11.0725,-8.7962 35.6683,-33.0338 51.5,-50.75 5.5,-6.1547 11.7475,-13.0316 13.8832,-15.282 2.1358,-2.2504 5.9188,-6.7916 8.4067,-10.0916 2.4879,-3.3 5.9935,-7.575 7.7902,-9.5 4.2126,-4.5133 14.2402,-18.5553 16.2292,-22.7264 1.464,-3.07 1.4037,-3.5144 -1.222,-9.0015 -9.134,-19.0878 -13.2758,-26.2721 -15.1458,-26.2721 -2.0612,0 -4.7552,-4.6718 -4.6583,-8.0784 0.1016,-3.5745 -7.1772,-20.7175 -11.4441,-26.953 -1.6818,-2.4577 -3.7957,-5.9079 -4.6975,-7.6671 -1.1923,-2.3257 -3.4744,-4.0741 -8.3643,-6.4078 -3.6986,-1.7652 -8.9566,-4.5254 -11.6846,-6.1339 -6.001,-3.5383 -7.1087,-2.3786 -15.566,16.297 -0.6368,1.4062 -2.7115,4.2527 -4.6105,6.3255 -1.8989,2.0728 -4.3112,5.4223 -5.3606,7.4432 -1.0493,2.021 -4.7926,7.2745 -8.3184,11.6745 -3.5257,4.4 -8.7131,11.3989 -11.5275,15.5531 -2.8144,4.1542 -6.0379,8.3864 -7.1634,9.405 -2.6497,2.398 -2.5803,3.4337 0.5094,7.5976 12.0742,16.2725 12.2718,19.476 1.9106,30.9741 -25.4294,28.2199 -27.4075,29.24 -39.6405,20.441 -12.1875,-8.7664 -10.8662,-8.7083 -19.2297,-0.8454 -9.5041,8.9352 -24.1031,20.9581 -39.0961,32.1974 -19.9351,14.9439 -19.0112,13.7174 -15.1991,20.1772 10.5103,17.8107 11.0903,20.3339 9.8495,42.8515 -2.7192,49.3454 -2.728,59.5262 -0.05,58.1106 1.32,-0.6978 7.8427,-4.3119 14.4949,-8.0313 z m -707.277,-53.1157 C 957.73786,1197.2069 898.69848,1129.9019 869.42765,1077.5 c -3.37943,-6.05 -8.15733,-14.375 -10.61755,-18.5 -22.77074,-38.1792 -23.21605,-35.8832 6.4125,-33.0624 74.50152,7.0931 65.689,7.6781 89.25626,-5.9254 12.45545,-7.1895 11.2236,-7.4751 18.05825,4.1864 4.52476,7.7204 5.42157,11.0801 12.49275,46.8014 3.32068,16.775 6.92161,34.325 8.00206,39 1.08045,4.675 4.91914,23.575 8.53038,42 8.8036,44.9164 9.295,47 11.0843,47 0.8174,0 9.7092,-7.9875 19.7595,-17.75 40.2752,-39.122 37.2426,-37.17 45.8302,-29.5 17.7222,15.8286 31.3323,26.6746 48.5137,38.661 9.8917,6.9008 9.8138,6.1228 1.846,18.4405 -6.4039,9.9003 -6.4039,9.9003 -13.75,12.673 -9.2974,3.5092 -40.3727,15.5675 -52.846,20.506 -5.225,2.0687 -14,5.8309 -19.5,8.3605 -12.9132,5.9392 -11.2128,6.3505 -27.1821,-6.5759 z m 30.4648,3.2635 c 5.8945,-2.727 14.3173,-6.2927 18.7173,-7.9238 4.4,-1.631 14.525,-5.6312 22.5,-8.8893 7.975,-3.258 18.8807,-7.4217 24.235,-9.2526 9.7349,-3.3289 9.7349,-3.3289 15.75,-12.7297 7.4828,-11.6947 7.6934,-11.1099 -7.4299,-20.6359 -1.6197,-1.0202 -5.369,-3.8296 -8.3316,-6.243 -2.9627,-2.4133 -6.9445,-5.1271 -8.8483,-6.0306 -1.9039,-0.9034 -5.1009,-3.643 -7.1043,-6.088 -2.0035,-2.445 -5.6966,-5.8214 -8.2068,-7.5032 -2.5103,-1.6817 -7.3143,-5.7335 -10.6756,-9.0039 -5.9368,-5.7763 -10.3885,-5.6267 -10.3885,0.3491 0,0.4719 -3.2625,3.2848 -7.25,6.2509 -3.9875,2.9662 -15.5285,13.5444 -25.6466,23.5072 -23.128,22.773 -22.4811,22.6337 -26.0677,5.6142 -0.5796,-2.75 -1.6874,-7.7 -2.4618,-11 -0.7745,-3.3 -2.1558,-10.275 -3.0696,-15.5 -2.74099,-15.6729 -8.35561,-43.8056 -10.97668,-55 -1.35217,-5.775 -4.97502,-23.4545 -8.05078,-39.2879 -5.86223,-30.1775 -7.36527,-35.8516 -10.3794,-39.1836 -1.00923,-1.1157 -2.10942,-3.1535 -2.44487,-4.5285 -2.1207,-8.6926 -18.49453,-6.182 -19.16649,2.9389 -0.24594,3.3384 -3.5593,5.6814 -5.08455,3.5955 -1.47251,-2.0137 -2.69201,-1.937 -7.40153,0.4656 -5.93684,3.0288 -7.8022,2.9501 -71.34127,-3.0087 -12.56269,-1.1782 -23.03216,-1.9512 -23.26549,-1.7179 -0.74418,0.7442 15.75552,31.092 19.49314,35.8537 1.13415,1.4448 4.81019,7.9698 8.16898,14.5 3.3588,6.5301 7.77971,14.1229 9.82425,16.8729 2.04454,2.75 5.84993,8.15 8.45641,12 8.83542,13.0507 28.51963,38.7034 39.13408,51 2.3738,2.75 6.53724,7.7 9.25208,11 8.15081,9.9076 50.01728,51.4301 61.27782,60.7744 34.3146,28.475 29.8009,26.6607 46.7827,18.8042 z M 1531,1147.9482 c -16.5854,-4.2938 -28.8165,-12.8389 -38.1276,-26.6373 -2.7134,-4.021 -5.2571,-7.3134 -5.6529,-7.3165 -0.3957,0 -10.5522,-1.5776 -22.5699,-3.4989 -51.2718,-8.1971 -65.9266,-8.4201 -98.1496,-1.4935 -5.5,1.1823 -15.8321,3.2526 -22.9603,4.6007 -12.9603,2.4511 -12.9603,2.4511 -21.2285,11.3118 -24.4917,26.2471 -54.73,28.2961 -104.8112,7.1023 -26.0926,-11.0421 -43.4458,-16.4821 -60.5,-18.9661 -65.3669,-9.5209 -78.4539,-22.6812 -65.0359,-65.3995 4.8619,-15.4786 5.0191,-19.6209 1.4381,-37.8947 -7.1129,-36.29663 2.1489,-51.27977 36.8735,-59.65161 26.4787,-6.38382 39.5395,-21.53503 36.1864,-41.97812 -7.6109,-46.40099 15.7015,-116.97158 58.5123,-177.12677 4.8928,-6.875 12.9154,-18.16487 17.8281,-25.08859 19.9135,-28.06527 29.5649,-47.48499 35.7395,-71.91141 4.3818,-17.33442 4.677,-21.73787 5.4647,-81.5 1.0011,-75.94893 3.5453,-88.47224 23.7696,-117 46.6917,-65.86202 162.0061,-66.67631 205.7184,-1.45266 19.8257,29.58217 25.7493,55.66964 27.0101,118.95266 1.5173,76.16128 7.2053,92.49121 53.9887,155 62.5565,83.58369 84.305,150.22594 68.3376,209.40197 -2.0473,7.58712 -2.0669,8.04364 -0.3897,9.04424 15.2258,9.08331 19.695,16.13236 24.9124,39.29343 3.9228,17.41405 6.0926,20.65901 22.7769,34.06329 32.5623,26.16077 23.3542,53.40937 -25.8779,76.57807 -30.9947,14.5862 -43.769,22.7686 -65.6446,42.0477 -31.7526,27.9838 -58.599,37.0297 -87.6082,29.5195 z m 36.7421,-2.0514 c 16.8003,-3.6399 31.3225,-11.8288 47.5172,-26.7946 6.8352,-6.3165 17.9419,-15.4771 25.7407,-21.2303 6.4694,-4.7725 23.3596,-14.0535 42.9885,-23.6216 48.6215,-23.7006 56.6653,-48.7499 23.6635,-73.6907 -14.6266,-11.05379 -18.0026,-16.40675 -22.0465,-34.95662 -4.2234,-19.37363 -9.4588,-28.30372 -20.6394,-35.20475 -6.4543,-3.98386 -6.7176,-4.65657 -4.413,-11.27447 12.753,-36.62027 -0.6663,-108.46226 -28.6463,-153.36256 -1.8032,-2.89366 -5.7244,-9.3112 -8.7137,-14.2612 -5.607,-9.28484 -19.687,-29.02858 -35.6567,-50 -39.9767,-52.49721 -46.7259,-73.00566 -48.5413,-147.5 -1.5779,-64.75026 -6.9706,-88.63988 -26.7496,-118.5 -43.4141,-65.54184 -162.1132,-63.34107 -205.071,3.80217 -18.7055,29.23674 -20.2432,37.40815 -21.2067,112.69783 -0.8723,68.16855 -1.5526,74.01549 -11.8091,101.5 -7.2249,19.36071 -20.1163,41.06544 -40.0912,67.5 -7.4197,9.81908 -24.2188,35.27253 -27.0597,41 -1.2277,2.475 -4.4157,8.325 -7.0845,13 -23.7264,41.56193 -37.2278,98.57768 -31.4812,132.94446 1.7157,10.26051 1.7157,10.26051 -1.7379,15.90802 -1.8995,3.10614 -4.2231,7.16148 -5.1637,9.01188 -2.6238,5.16174 -9.0432,11.60763 -13.6115,13.66767 -3.6807,1.65974 -3.8937,1.93687 -2.0217,2.6294 5.8138,2.15066 -0.012,4.38029 -9.2465,3.53867 -32.9485,-3.00295 -49.0675,19.89002 -41.057,58.3112 3.241,15.5453 2.8903,21.3369 -2.2404,36.9887 -12.9765,39.5868 0.8811,54.4201 58.3905,62.5019 24.657,3.465 49.8852,11.4217 77.5528,24.4591 37.7185,17.7736 73.1211,11.5692 97.202,-17.0349 2.7276,-3.2398 3.7557,-3.6924 11,-4.8418 4.3952,-0.6974 14.974,-2.7854 23.5084,-4.6401 27.9457,-6.0733 44.4669,-7.9327 57.9829,-6.5259 11.7637,1.2244 66.7275,9.9857 69.6052,11.0952 1.1579,0.4464 3.5328,3.3411 5.2775,6.4327 12.7812,22.647 42.4217,33.2619 73.8594,26.4506 z M 1537,1135.445 c -34.7431,-7.462 -44.2252,-29.6629 -32.4692,-76.0217 8.3709,-33.0097 11.4585,-54.3771 11.4766,-79.4233 0.022,-30.75831 4.2011,-44.90128 15.8868,-53.7674 6.8626,-5.20677 8.2776,-4.39053 9.6995,5.59495 5.623,39.48897 47.4482,47.22877 81.9203,15.15946 7.1931,-6.69173 8.4923,-7.35614 17.6217,-9.01162 18.6942,-3.38991 26.6527,3.55785 31.3999,27.4122 4.2118,21.16345 7.4472,27.18829 20.7401,38.62091 13.3043,11.4423 16.3129,14.5849 18.5791,19.4061 7.4539,15.8575 -4.7394,29.0005 -39.9817,43.0957 -26.7636,10.7041 -59.8731,34.7711 -59.8731,43.5212 0,3.3018 -0.336,3.9685 -2,3.9685 -1.1111,0 -2,0.6667 -2,1.5 0,1.0064 -1.0066,1.5 -3.059,1.5 -1.7847,0 -2.8016,-0.4166 -2.441,-1 1.2352,-1.9987 -0.8491,-0.8918 -8.5808,4.5569 -19.585,13.802 -38.6986,18.8014 -56.9192,14.8881 z m 26.104,-1.8796 c 13.7116,-2.9065 29.3326,-12.7711 52.396,-33.0879 18.32,-16.1384 33.2872,-25.9298 52.0161,-34.0285 48.8507,-21.124 56.8672,-35.506 31.0269,-55.6637 -17.6444,-13.76412 -23.2207,-22.73595 -27.1438,-43.67215 -3.9222,-20.93163 -9.6344,-27.27728 -24.512,-27.23025 -10.5697,0.0334 -14.8618,1.58263 -22.0491,7.95852 -21.0017,18.63079 -39.331,24.26542 -59.0862,18.16367 -13.3098,-4.11097 -25.6982,-21.10386 -25.7672,-35.34418 -0.033,-6.85744 -3.2415,-7.13405 -10.1677,-0.87665 -8.4497,7.63387 -10.4476,15.90944 -11.8126,48.93155 -1.4128,34.17779 -3.6851,49.67819 -11.9896,81.78419 -6.6381,25.6636 -6.9495,33.5814 -1.8557,47.1957 7.5782,20.2546 32.9348,31.3831 58.9449,25.8697 z m -305.0362,-2.597 c -8.1916,-1.712 -24.4052,-7.1215 -33.1596,-11.0634 -4.776,-2.1505 -13.1216,-5.5119 -18.5459,-7.4697 -5.4243,-1.9579 -13.9123,-5.0627 -18.8623,-6.8996 -10.4973,-3.8954 -19.9987,-5.911 -38,-8.061 -42.0842,-5.0263 -54.9433,-18.257 -43.7659,-45.0304 5.0823,-12.1735 5.4818,-30.8191 0.9952,-46.4443 -7.2475,-25.24019 -0.7827,-35.1003 28.1762,-42.97429 20.2024,-5.49311 25.7093,-9.54349 37.5588,-27.62493 12.0663,-18.41229 24.6733,-23.53112 41.4355,-16.82418 8.1804,3.27313 23.8896,25.20312 57.6101,80.4234 8.1662,13.3727 21.9822,33.7525 30.7572,45.3694 27.5387,36.4573 27.0457,60.8088 -1.6305,80.5363 -8.6773,5.9695 -29.0986,8.8779 -42.5688,6.0627 z m 31.4699,-3.0528 c 35.0458,-10.8245 40.4551,-43.4659 13.271,-80.0818 -10.4428,-14.0661 -28.1049,-39.8139 -34.365,-50.09739 -45.2545,-74.33915 -50.6006,-80.5275 -68.7086,-79.53369 -13.6165,0.7473 -16.0836,2.58051 -27.9884,20.79728 -10.8362,16.58142 -15.9826,20.12575 -37.7467,25.99577 -27.0288,7.28998 -31.7773,15.21855 -25.3496,42.32643 4.1658,17.5686 3.8991,29.9783 -0.9392,43.7124 -10.3222,29.3006 -0.9201,38.7732 45.1097,45.4475 26.263,3.8081 41.1238,8.2397 72.2148,21.5348 29.647,12.6776 46.9219,15.3287 64.502,9.8987 z M 1467,1096.8617 c -36.792,-9.031 -80.3519,-9.1326 -110.6726,-0.258 -13.3762,3.915 -20.0855,4.3298 -20.7109,1.2804 -1.5175,-7.3997 -1.5215,-24.7066 -0.01,-25.2882 3.2859,-1.2609 35.5682,-0.5606 46.6049,1.011 11.9077,1.6956 24.3032,1.5624 50.7844,-0.5459 7.425,-0.5912 18.8822,-1.4092 25.4605,-1.8179 11.9605,-0.7431 11.9605,-0.7431 13.4022,-6.7431 1.7569,-7.3119 1.9702,-7.4656 10.3873,-7.4847 7.8084,-0.018 8.0037,0.4655 5.25,12.9847 -0.7864,3.575 -1.4517,10.775 -1.4785,16 -0.084,16.4075 1.0148,15.7799 -19.0215,10.8617 z m -87,-24.5123 c -32.53,-6.4494 -57.0432,-17.5925 -62.5383,-28.4284 -1.2772,-2.5185 -4.6035,-7.3094 -7.3919,-10.6465 -6.3033,-7.5436 -6.427,-9.0392 -0.8198,-9.9137 12.5476,-1.9571 18.5215,-19.7856 11.7552,-35.08202 -6.0837,-13.75314 -25.2911,-29.00891 -26.0179,-20.66501 -0.8172,9.38335 -0.4288,9.88623 7.6357,9.88623 6.985,0 10.4063,4.12666 5.377,6.48559 -0.825,0.38696 -2.4548,1.19125 -3.6217,1.78731 -1.5246,0.77878 -2.4272,0.77816 -3.2076,-0.002 -0.7813,-0.78126 -1.5618,-0.69101 -2.782,0.32167 -0.9329,0.77419 -1.9644,1.32463 -2.2924,1.2232 -0.328,-0.10144 -0.4641,0.46106 -0.3025,1.25 0.1616,0.78893 -0.4009,1.43442 -1.25,1.43442 -0.8491,0 -1.5438,0.62325 -1.5438,1.38499 0,1.25902 -4.5654,5.02659 -6.1667,5.08902 -0.3666,0.0143 -1.0041,0.36349 -1.4166,0.77599 -1.8358,1.8358 -4.4825,0.67116 -5.0622,-2.22757 -0.9095,-4.5473 -2.8967,-5.72406 -6.2857,-3.72212 -2.618,1.54646 -2.8942,1.54171 -4.247,-0.0731 -3.7737,-4.5049 -4.9543,-7.4492 -4.4312,-11.05127 0.2936,-2.02175 0.5509,-5.60253 0.5716,-7.95729 0.028,-3.14311 0.5031,-4.4524 1.7878,-4.92459 0.9625,-0.35377 2.1113,-1.24224 2.5529,-1.97439 0.5033,-0.83433 1.7128,-1.10282 3.2407,-0.71934 1.6652,0.41795 2.6193,0.13869 3.0107,-0.88125 0.4139,-1.0785 2.9495,-1.69106 9.1316,-2.20603 10.1273,-0.8436 10.1851,-0.68692 -4.0179,-10.89411 -13.3118,-9.56675 -23.7768,-17.60238 -28.4992,-21.88338 -2.8471,-2.58103 -4.9755,-3.75785 -6.2116,-3.43458 -1.3752,0.35961 -4.0563,-1.77456 -9.9765,-7.94111 -5.8194,-6.06166 -8.9935,-8.60214 -11.2883,-9.03485 -1.7558,-0.33109 -4.3174,-1.19341 -5.6924,-1.91628 -6.5771,-3.4577 -20.0862,-4.31867 -29.4587,-1.87746 -7.114,1.85297 -7.1989,1.77983 -9.1725,-7.898 -5.8682,-28.77557 10.2718,-84.53501 37.7333,-130.35847 4.5403,-7.57613 9.2241,-15.12478 10.4085,-16.77478 1.1843,-1.65 6.8173,-9.75 12.5177,-18 5.7004,-8.25 12.9855,-18.4271 16.1892,-22.61579 5.5777,-7.29278 8.3251,-11.93886 20.3892,-34.4801 4.7006,-8.78281 11.741,-27.67483 15.3367,-41.15411 1.3843,-5.18941 1.8144,-5.22147 6.7082,-0.5 4.0761,3.93254 14.0816,11.26621 19.2247,14.09099 1.6614,0.91246 10.3171,7.22997 19.2351,14.03892 33.0551,25.23793 50.9,25.08054 93.8048,-0.82731 5.2711,-3.18291 14.3088,-8.15338 20.0838,-11.04547 5.775,-2.8921 12.075,-6.49018 14,-7.99573 1.925,-1.50555 4.9882,-3.49885 6.807,-4.42954 1.8189,-0.9307 4.6261,-3.80486 6.2382,-6.38702 1.6122,-2.58216 4.0973,-5.97853 5.5224,-7.54749 11.1385,-12.26265 -5.4519,-44.72141 -23.1304,-45.25427 -13.3758,-0.40316 -18.1373,-3.67787 -14.8702,-10.22696 5.2722,-10.56828 6.3298,-20.05184 3.3223,-29.78915 -7.6272,-24.69389 -31.1098,-18.31081 -33.0021,8.97069 -0.3873,5.58379 -0.7454,10.26484 -0.7957,10.40234 -1.8391,5.02494 -19.5851,-5.41895 -20.1689,-11.86982 -0.5309,-5.86686 -1.3676,-5.73131 -1.0809,0.17512 0.1473,3.03274 -3.9529,4.9447 -10.6037,4.9447 -2.266,0 -4.4002,0.45345 -4.7427,1.00767 -0.3813,0.61682 -1.255,0.37547 -2.2527,-0.62222 -1.8721,-1.87212 -12.4175,-1.31514 -14.9538,0.78983 -1.6838,1.39743 -11.0836,4.7456 -13.4535,4.79207 -1.3557,0.0266 -1.7903,-1.40561 -2.3418,-7.71735 -1.4832,-16.97406 -11.7563,-26.94842 -20.3275,-19.73627 -8.1086,6.82296 -8.1986,25.28543 -0.1815,37.21201 2.0926,3.11299 3.573,6.26383 3.2898,7.00186 -0.7175,1.86963 -8.7697,7.2724 -10.8388,7.2724 -0.9372,0 -5.9174,1.99586 -11.067,4.43525 -9.3629,4.43525 -9.3629,4.43525 -10.0083,1.86368 -1.0177,-4.05495 0.3433,-23.89358 1.8165,-26.47777 2.0524,-3.60016 1.7693,-37.83702 -0.3624,-43.82116 -1.6951,-4.75847 -1.237,-15.63944 1.2314,-29.2518 9.6916,-53.44602 61.5148,-92.55748 114.9543,-86.75708 5.225,0.56713 13.1507,1.42623 17.6126,1.90911 27.0198,2.92414 47.3816,15.43919 67.6197,41.56131 11.9059,15.36748 15.2019,24.94104 21.8753,63.53846 0.523,3.025 1.5897,25.75 2.3705,50.5 2.0468,64.88366 3.2665,70.07048 27.7054,117.81754 2.4207,4.7295 9.533,14.74217 26.2651,36.97612 36.6998,48.76761 63.1422,98.46924 67.0917,126.10699 0.7152,5.00464 2.3089,13.14935 3.5416,18.09935 5.0856,20.42159 2.4549,41.67229 -7.4897,60.5 -0.7262,1.375 -1.637,3.85 -2.024,5.5 -2.0535,8.75536 -7.5682,10.53538 -7.5682,2.44282 0,-13.67759 -4.3916,-19.41427 -21.521,-28.1126 -31.626,-16.05969 -58.6212,-12.98538 -68.544,7.80603 -2.3812,4.98921 -3.6094,6.47309 -5.7327,6.92602 -22.9664,4.89901 -30.9607,22.86711 -34.676,77.93773 -1.9138,28.36798 -3.9193,42.45408 -6.9763,48.99998 -1.2842,2.75 -2.9032,6.7935 -3.5978,8.9855 -1.2443,3.9274 -1.278,3.9493 -2.304,1.5 -0.5727,-1.367 -1.1278,-2.623 -1.2337,-2.7911 -0.1058,-0.1681 -6.8799,3.2845 -15.0535,7.6726 -26.7742,14.3738 -70.4615,23.0225 -93.361,18.4824 z m 49.4455,-4.2738 c 26.959,-5.5323 61.2663,-22.5341 65.5915,-32.5054 2.4599,-5.671 4.756,-23.5795 5.9709,-46.5702 2.6919,-50.94095 11.2266,-71.76129 32.0034,-78.07206 6.0211,-1.82884 6.9406,-2.4324 7.4855,-4.91345 4.863,-22.14123 39.1964,-27.60046 70.8636,-11.26779 17.1382,8.83915 22.6754,15.34869 23.0364,27.08156 0.2029,6.5957 1.9217,7.75006 3.6829,2.47353 5.7973,-17.36837 -11.8014,-38.18676 -39.5797,-46.82091 -5.5601,-1.72821 -6.9769,-2.56712 -6.8876,-4.07832 0.062,-1.04641 0.6668,-6.62756 1.3445,-12.40256 4.3203,-36.81921 -7.8607,-72.72703 -35.7639,-105.42742 -12.8028,-15.00376 -14.4943,-13.93181 -3.7678,2.38773 24.8866,37.86331 35.9013,91.28597 23.094,112.00867 -5.6809,9.19179 -19.8561,3.35645 -21.2359,-8.74193 -4.0104,-35.16298 -11.937,-57.32479 -42.4653,-118.72705 -21.7494,-43.74518 -28.7318,-62.03444 -35.7916,-93.75 -2.4882,-11.17779 -2.1982,-11.00416 -9.7877,-5.86127 -3.1563,2.13879 -10.0137,6.01944 -15.2387,8.62366 -5.225,2.60422 -15.4032,8.27782 -22.6182,12.608 -43.2853,25.97833 -62.2507,23.85112 -104.1615,-11.68304 -5.1576,-4.37286 -7.219,-4.00721 -7.2235,1.28127 -0.016,19.34671 -14.6346,67.30724 -32.5847,106.90624 -29.1695,64.3498 -34.0445,80.81476 -35.1228,118.62514 -0.6126,21.48335 -0.9584,22.49474 -5.6071,16.40005 -20.7923,-27.26023 -18.7351,-74.62571 5.2097,-119.94536 9.6465,-18.25772 7.971,-19.35373 -3.3703,-2.20469 -30.8446,46.63936 -36.2007,97.45985 -13.8311,131.23339 6.7678,10.21796 19.5979,21.66777 50.8359,45.36671 34.8215,26.4176 40.8635,33.66417 42.1907,50.6021 0.8645,11.0331 -7.0761,24.2409 -14.6171,24.3131 -4.3056,0.041 -4.3969,1.7073 -0.3353,6.1211 2.2083,2.4 5.6743,7.1983 7.7021,10.663 6.8551,11.7124 29.8785,22.9715 55.5332,27.1572 4.125,0.673 8.175,1.3852 9,1.5827 4.7394,1.1345 37.3378,-0.5947 46.4455,-2.4637 z M 1324.0199,575.48746 c 4.5557,-2.87589 4.7449,-3.60472 1.9533,-7.52508 -8.9611,-12.58465 -8.1482,-36.22571 1.4468,-42.0767 9.7393,-5.93901 20.3302,3.94498 21.375,19.94824 0.5645,8.64619 1.2236,9.14848 7.8518,5.98348 13.1865,-6.29656 0.3812,-45.59754 -16.5052,-50.65684 -29.8137,-8.9324 -46.3607,42.27085 -23.9429,74.08944 2.3746,3.37036 2.8361,3.38437 7.8212,0.23746 z m 140.0821,-1.5895 c 23.7763,-23.77625 4.1597,-81.62011 -27.5831,-81.33489 -27.1746,0.24416 -52.458,50.39823 -30.0556,59.62061 8.9528,3.68561 9.5367,3.4119 9.5367,-4.47079 0,-22.20131 17.8008,-35.0859 30.462,-22.04906 8.9057,9.16992 10.5467,25.84096 3.9308,39.93266 -1.3161,2.80307 -2.3928,5.58447 -2.3928,6.18088 0,0.84446 8.9048,3.623 13.25,4.13437 0.4125,0.0485 1.6959,-0.85766 2.852,-2.01378 z m 109.6325,377.07251 c -15.8704,-3.98564 -25.5118,-22.40778 -20.7076,-39.56659 4.3083,-15.38756 32.1057,-16.51393 56.0779,-2.2723 11.5352,6.85295 12.5562,14.52728 3.7257,28.00438 -5.9749,9.11889 -27.5181,16.74216 -39.096,13.83451 z M 1366.4649,667.17658 c -7.3821,-2.75072 -8.7476,-3.61872 -16.1943,-10.29465 -3.7238,-3.33834 -10.8206,-8.80297 -15.7706,-12.14362 -37.7548,-25.47989 -41.0292,-38.4979 -13.9089,-55.29719 4.3499,-2.69449 14.4218,-9.56311 22.382,-15.2636 30.4847,-21.83075 40.329,-22.38061 74.1235,-4.1402 10.041,5.41962 18.9181,9.3077 28.4438,12.45804 45.0703,14.90585 43.9222,35.462 -3.3781,60.4845 -8.0642,4.26611 -19.557,10.74044 -25.5393,14.3874 -17.6733,10.77399 -37.2791,14.60825 -50.1581,9.80932 z m 24.3273,-0.7367 c 9.1768,-1.85746 16.6811,-5.1967 31.0416,-13.81284 5.8664,-3.51978 14.0412,-8.08013 18.1662,-10.13412 25.5285,-12.71155 35,-21.70369 35,-33.22854 0,-12.68304 -5.7607,-17.3565 -31.9079,-25.88573 -7.3743,-2.40551 -16.8243,-6.33384 -21,-8.72962 -14.8178,-8.50167 -16.6725,-9.43401 -23.9859,-12.05746 -19.5678,-7.01939 -31.6263,-4.19007 -53.8231,12.62876 -6.4807,4.91053 -16.6025,11.83765 -22.493,15.39359 -25.3429,15.29905 -23.336,26.56757 8.7868,49.33771 6.5577,4.6484 15.0731,11.09793 18.9231,14.3323 15.2754,12.83277 24.5129,15.55219 41.2922,12.15595 z m -26.6361,-22.51552 c -17.8025,-2.31153 -59.4685,-31.93071 -44.9061,-31.92254 2.566,0.001 5.5652,1.82071 14.25,8.64368 30.1916,23.7192 55.7421,22.04469 103.7469,-6.79932 15.9748,-9.59851 19.7531,-11.02248 19.7531,-7.44451 0,4.19834 -31.7629,24.16603 -50.1372,31.51869 -13.7246,5.49204 -29.533,7.7145 -42.7067,6.004 z M 1933.2609,1076.75 c -3.3313,-6.1875 -7.4626,-14.0691 -9.1807,-17.5146 -1.7181,-3.4456 -4.7542,-8.8135 -6.7471,-11.9288 -1.9928,-3.1153 -6.0592,-10.73 -9.0365,-16.9217 -6.2977,-13.0967 -8.7185,-15.6303 -22.3275,-23.3671 -18.9083,-10.74944 -17.5991,-8.79851 -12.6048,-18.78213 6.3197,-12.63339 14.0413,-31.13924 21.5865,-51.73567 6.5941,-18 6.5941,-18 20.7722,-18.5 17.1692,-0.60549 15.0854,1.59212 21.2365,-22.3963 8.575,-33.4417 9.3617,-30.20752 -9.9595,-40.94728 -8.9467,-4.97306 -8.6599,-3.2658 -4.6459,-27.65642 1.9231,-11.68593 3.0528,-23.72111 3.8719,-41.25 1.1566,-24.75 1.1566,-24.75 16.031,-24.75 17.5941,0 12.6695,-2.18713 45.743,20.31566 36.9006,25.10674 47,32.51986 46.9999,34.49866 -7e-4,8.65803 -7.7327,57.10766 -12.5575,78.68568 -9.6114,42.98542 -30.4546,99.95152 -51.5904,141 -29.3198,56.9431 -29.2081,56.8205 -37.5911,41.25 z m 12.7486,0.75 c 2.0813,-2.313 4.3103,-6.2595 13.2729,-23.5 28.4943,-54.81131 35.6319,-72.09283 52.6598,-127.5 8.7439,-28.45159 14.4509,-55.9688 19.0366,-91.78825 2.8012,-21.8808 3.4135,-19.46507 -6.7288,-26.5482 -4.8125,-3.36095 -10.55,-7.42533 -12.75,-9.03196 -2.2,-1.60663 -7.6,-5.02827 -12,-7.60365 -4.4,-2.57538 -9.35,-5.94938 -11,-7.49778 -32.7639,-30.74644 -59.7533,-30.31473 -60.6319,0.96984 -0.6107,21.74074 -2.0383,35.27787 -5.7748,54.75924 -2.0561,10.72003 -2.8354,9.42883 9.4169,15.60411 14.7763,7.44738 14.4278,6.76595 11.5774,22.63665 -6.8766,38.28785 -9.4967,41.9296 -30.1997,41.97614 C 1902.2758,920 1902.2758,920 1896.99,935.75 c -2.9072,8.6625 -7.4129,20.475 -10.0127,26.25 -2.5998,5.775 -5.0551,11.625 -5.4562,13 -0.4011,1.375 -2.9539,6.76786 -5.6728,11.98414 -2.7189,5.21628 -4.5845,9.60633 -4.1459,9.75566 2.3108,0.78666 25.5212,15.19 28.6198,17.7602 2.5898,2.1481 5.4955,6.8213 10.2325,16.4569 3.6386,7.4013 7.7132,14.7612 9.0545,16.3553 1.3414,1.5941 5.1684,8.5885 8.5044,15.5431 10.8111,22.5382 11.7632,23.8859 14.1072,19.9688 1.0941,-1.8282 2.799,-4.2241 3.7887,-5.3241 z M 881,1001.4583 c -44.45523,-4.1314 -50.92585,-4.94607 -52.54704,-6.61579 C 824.69398,990.971 810.32119,951.30422 800.97232,919 781.99206,853.41533 772.97985,764.81455 779.53546,708.25 c 0.79674,-6.87459 1.09107,-6.8132 14.5988,3.0446 6.25116,4.56204 14.29074,10.27437 17.86574,12.69408 3.575,2.41971 13.7,9.63591 22.5,16.036 8.8,6.40009 17.14248,12.37726 18.53885,13.28258 1.91463,1.24135 6.67967,1.88063 19.38073,2.60013 20.4735,1.1598 18.80039,-0.56817 19.68402,20.32943 0.71447,16.89687 2.68235,35.27467 5.48922,51.26318 2.19692,12.51407 2.69621,11.45854 -9.36507,19.79801 -15.32521,10.59625 -14.44342,7.9305 -9.28585,28.0722 8.53829,33.34436 7.68577,32.09313 22.0581,32.37455 17.16553,0.33611 16.43014,0.0275 19.07296,8.0037 4.53848,13.69744 18.17173,47.15814 24.69025,60.59842 7.88184,16.25126 8.57772,14.45144 -8.99655,23.2683 -12.71106,6.37702 -7.76984,6.21072 -54.76666,1.84312 z m 56,-4.24929 c 13.951,-6.97356 13.77599,-6.0896 4.58032,-23.13522 C 937.96114,967.36508 935,961.25766 935,960.50176 c 0,-1.32268 -2.32921,-7.51887 -8.83456,-23.50176 -1.67895,-4.125 -4.54651,-11.775 -6.37236,-17 -3.31972,-9.5 -3.31972,-9.5 -17.02471,-10 -10.39498,-0.37924 -14.04611,-0.86228 -15.11737,-2 C 885.30939,905.51311 873,863.58115 873,858.09134 c 0,-1.61958 4.82869,-5.67624 14.71319,-12.36078 10.73406,-7.25907 10.14316,-4.9656 6.82428,-26.48758 -2.57356,-16.68874 -4.40944,-36.45976 -4.8047,-51.74298 -0.23277,-9 -0.23277,-9 -16.23277,-9.79332 -19.21673,-0.95281 -17.84543,-0.46143 -34,-12.18322 -7.15,-5.18805 -18.85,-13.51899 -26,-18.5132 -7.15,-4.99421 -16.98146,-11.9896 -21.84769,-15.54532 -10.96147,-8.00947 -10.22727,-8.16177 -11.0152,2.28506 -6.16655,81.75963 8.93284,179.67269 39.94433,259.02168 9.49053,24.28339 6.52722,21.76358 27.91856,23.7401 85.76906,7.92492 74.22265,7.83392 88.5,0.69723 z M 2023.4559,772.96229 c -12.9723,-8.75296 -35.2589,-23.55626 -50.6246,-33.626 C 1963.1626,733 1963.1626,733 1945.6403,733 c -9.6372,0 -17.7256,-0.3375 -17.9742,-0.75 -0.2486,-0.4125 -0.9715,-6.6 -1.6066,-13.75 -1.7347,-19.53218 -3.8082,-33.99843 -7.0963,-49.51004 -4.2149,-19.88417 -4.1364,-20.38045 3.8643,-24.43512 5.1732,-2.62172 12.4052,-8.36742 15.3108,-12.16408 2.9245,-3.82137 2.8886,-4.47744 -0.8959,-16.39076 -1.1357,-3.575 -3.7304,-11.9 -5.7661,-18.5 -5.8517,-18.97256 -4.2162,-17.5 -19.4369,-17.5 -18.0297,0 -16.4733,1.21495 -23.8785,-18.63986 -3.4586,-9.27308 -11.0626,-26.34488 -16.8979,-37.93734 -6.0088,-11.93719 -10.3572,-21.73481 -10.0277,-22.59369 0.5092,-1.32689 21.7165,-14.50532 25.7846,-16.0228 1.7749,-0.66208 49.3466,2.70178 59.1717,4.18412 3.6803,0.55526 12.4894,1.00957 19.5756,1.00957 17.078,0 14.7253,-3.00141 30.5709,39 28.2233,74.8105 46.104,176.28312 42.0126,238.41949 -1.035,15.7185 -0.248,15.42564 -14.8948,5.5428 z m 13.1131,0.3319 C 2042.8926,722.68138 2023.8119,608.20756 1996.8495,535 c -17.2657,-46.87954 -14.6406,-43.68209 -36.0271,-43.88169 -6.9727,-0.0651 -15.9727,-0.55412 -20,-1.08678 -4.0273,-0.53265 -17.5907,-1.68324 -30.1408,-2.55684 -25.5991,-1.78194 -22.4846,-2.4748 -41.3568,9.20024 -8.477,5.24419 -9.1206,1.60623 5.3651,30.32507 5.4096,10.725 12.0568,25.55188 14.7715,32.94862 6.6647,18.15909 8.2992,19.38214 25.4366,19.03287 4.7311,-0.0964 9.1554,-0.1317 9.8317,-0.0784 2.4197,0.1907 6.1024,9.79814 14.1813,36.99628 4.6591,15.68534 1.959,20.73582 -16.6147,31.07649 -5.6293,3.13408 -5.6185,3.04993 -2.3526,18.26187 4.2756,19.91512 5.9857,31.51559 7.3356,49.76227 1.2207,16.5 1.2207,16.5 19.7207,17 18.5,0.5 18.5,0.5 30.5,8.45513 25.4723,16.8863 43.2773,28.82872 50,33.53665 8.6975,6.09094 8.2162,6.12797 9.069,-0.69759 z M 874.97194,728.00055 C 860.34154,727.45921 862.87033,728.85627 820,697.6306 c -2.475,-1.80272 -11.41858,-8.19143 -19.87462,-14.19711 -17.78419,-12.63077 -16.75135,-11.11726 -15.19646,-22.26857 11.79591,-84.59794 45.85498,-174.54038 95.96224,-253.41492 5.71538,-8.99666 8.64653,-5.53491 21.37977,25.25 16.41613,39.68897 18.87367,43.30386 38.22907,56.23272 18.15055,12.12404 17.22523,8.22259 6.91927,29.17388 -4.76995,9.69697 -11.46074,24.93493 -14.86842,33.86213 -7.45826,19.53858 -7.1702,19.29744 -24.66977,20.65113 -16.7284,1.29403 -15.30766,-0.54669 -23.93189,31.00637 -6.02545,22.04506 -6.2391,21.43739 11.11376,31.61068 10.11338,5.92906 9.5929,2.97363 5.04786,28.66305 -2.16996,12.26502 -4.97257,31.44485 -6.22801,42.62185 -2.68584,23.91152 -0.84265,21.84728 -18.91086,21.17874 z M 890.45129,721.75 c 3.65653,-32.25243 6.60238,-52.36659 10.11506,-69.06538 2.28233,-10.8499 2.20889,-11.10133 -4.31635,-14.7755 -20.53764,-11.56417 -20.24545,-10.7733 -13.27679,-35.93662 8.69939,-31.41289 7.0138,-29.39056 25.74814,-30.892 14.6469,-1.17386 15.56666,-1.59596 18.14345,-8.32641 1.10635,-2.88975 4.06593,-10.61453 6.57684,-17.16619 2.51092,-6.55165 8.16374,-19.02396 12.56183,-27.71624 9.80447,-19.37732 10.41736,-16.28507 -5.25347,-26.50583 C 921.18147,478.60294 916.42568,471.82299 901.21221,435 c -14.88987,-36.03973 -15.58672,-36.1301 -32.31079,-4.19049 -2.20188,4.20514 -4.64799,8.35796 -5.4358,9.22848 -1.88651,2.08457 -18.30739,33.61237 -23.00869,44.17628 -2.02809,4.55715 -5.49246,11.8779 -7.6986,16.26832 -2.20615,4.39043 -4.67125,9.79043 -5.47801,12 -0.80676,2.20958 -3.40174,9.41741 -5.76662,16.01741 -2.36488,6.6 -6.41076,17.85 -8.99084,25 -14.95027,41.43061 -29.81364,114.43685 -24.30111,119.3628 3.06576,2.73954 18.40814,13.74406 27.5224,19.74079 2.88429,1.89771 9.85929,6.95218 15.5,11.23215 26.41151,20.04011 29.20192,21.60083 39.75585,22.23605 20.59159,1.23936 18.77505,1.64297 19.45129,-4.32179 z m 66.00696,-254.63416 c -15.08148,-9.94332 -15.29052,-10.18498 -21.2935,-24.61584 -4.69566,-11.28812 -16.78341,-37.49089 -26.03994,-56.4471 -5.87277,-12.0267 -6.38458,-10.26862 8.2948,-28.49252 52.13611,-64.72502 119.55539,-121.09993 189.51909,-158.4727 13.9081,-7.42933 13.0732,-8.33192 11.943,12.91232 -2.5046,47.07951 -1.7781,65.63571 2.9754,76 12.7693,27.84143 12.8069,26.39295 -0.9212,35.49541 -11.8861,7.88108 -34.0199,24.66037 -41.1431,31.18977 -5.7801,5.29841 -4.0191,5.532 -16.6941,-2.21435 -15.4245,-9.42674 -16.6564,-9.46836 -24.9465,-0.84282 -3.6587,3.80678 -11.2371,11.08127 -16.8408,16.16553 -12.2682,11.131 -12.5029,11.66799 -8.0796,18.48688 4.7816,7.37135 11.7682,19.22265 11.7682,19.9624 0,0.34243 -4.8375,6.22134 -10.75,13.06424 -16.22555,18.77884 -22.11932,26.10245 -32.82117,40.7837 -13.0376,17.8855 -9.85582,16.99035 -24.97058,7.02508 z M 978.93166,460.75 c 4.89004,-6.7375 10.44086,-14.05 12.33515,-16.25 1.89429,-2.2 5.60585,-6.925 8.24791,-10.5 2.64208,-3.575 7.02648,-8.80908 9.74308,-11.63129 4.9811,-5.17459 5.8033,-6.34857 9.9247,-14.17098 2.3629,-4.48466 -0.866,-13.15817 -8.8571,-23.79212 -1.279,-1.70192 -2.3235,-3.50192 -2.3213,-4 0.01,-1.67279 12.4499,-15.26397 16.9235,-18.48632 2.4352,-1.75406 7.8731,-6.72846 12.0842,-11.05424 4.211,-4.32578 8.4013,-7.86505 9.3116,-7.86505 3.3627,0 11.4046,3.76828 18.8059,8.81208 9.3681,6.38411 9.7408,6.38678 15.0354,0.10766 2.356,-2.79415 5.6453,-5.67731 7.3095,-6.40703 1.6642,-0.72972 7.0758,-4.58746 12.0258,-8.57276 4.95,-3.98529 12.375,-9.39354 16.5,-12.01832 17.0709,-10.8624 17.0126,-10.43715 4.8534,-35.42163 -6.07,-12.47243 -7.273,-43.25826 -3.3314,-85.25 0.426,-4.5375 0.4737,-8.25 0.1062,-8.25 -1.3103,0 -19.2026,9.31159 -23.3084,12.13025 -2.2991,1.57836 -4.4616,2.86975 -4.8056,2.86975 -1.8759,0 -19.832,11.59257 -24.6745,15.93002 -3.1131,2.78849 -6.5331,5.06998 -7.5999,5.06998 -1.9056,0 -8.8051,4.41308 -12.7398,8.14868 -1.1,1.04434 -5.2736,4.07317 -9.2746,6.73075 -14.2093,9.4381 -28.3193,21.50401 -35.0319,29.95688 -2.18748,2.75465 -4.09756,4.16369 -5.64421,4.16369 -2.22843,0 -5.01504,2.27797 -10.55463,8.62809 -1.37794,1.57955 -4.63577,4.32185 -7.23963,6.09399 -2.60385,1.77214 -5.95315,4.92214 -7.44288,7 -1.48973,2.07786 -5.53111,6.1555 -8.98085,9.06144 -4.6518,3.91849 -6.53715,6.26724 -7.29756,9.09119 -1.13854,4.22819 -3.01188,6.19499 -7.64196,8.02319 C 942.49583,330.04137 938,334.83257 938,336.7753 938,337.81813 928.92773,347 927.89735,347 c -0.40383,0 -1.77579,1.68528 -3.0488,3.74506 -1.27302,2.05978 -4.81521,6.67228 -7.87153,10.25 -11.96349,14.00439 -11.88806,13.45704 -4.06623,29.50494 2.68072,5.5 8.29746,16.9922 12.48163,25.53822 4.18417,8.54602 7.60758,15.9404 7.60758,16.43195 0,10.05197 9.74526,23.5071 23.85705,32.93906 13.96078,9.33103 11.55147,9.83956 22.07461,-4.65923 z m 862.92034,8.5 c -2.3161,-3.1625 -8.6239,-11.67726 -14.0173,-18.92169 -11.1205,-14.93703 -11.0501,-14.80329 -13.8612,-26.32831 -2.2478,-9.21556 -7.929,-29.62606 -18.9276,-68 -11.8864,-41.47157 -13.3135,-46 -14.4968,-46 -1.0643,0 -31.3539,30.84115 -38.548,39.25 -3.8767,4.53123 -5.0632,4.62237 -9.8184,0.75415 -7.9871,-6.49741 -29.5614,-22.08668 -35.4539,-25.61853 -3.4259,-2.05335 -7.8409,-4.98318 -9.8111,-6.51073 -1.9703,-1.52755 -6.9203,-4.75858 -11,-7.18007 -9.0116,-5.34875 -9.0048,-5.28215 -1.854,-18.29905 7.0491,-12.83168 11.7908,-17.36694 26.9889,-25.81391 16.6593,-9.25908 34.0438,-19.38699 47.5885,-27.72417 13.3773,-8.23414 11.7081,-8.14332 21.7066,-1.18104 71.4891,49.77984 134.3299,117.65588 178.8687,193.20097 19.0514,32.31421 18.9921,32.57976 -6.7301,30.14314 -58.764,-5.56661 -62.3567,-5.37953 -75.9636,3.9558 -4.548,3.12024 -17.9545,10.02344 -19.4662,10.02344 -0.5464,0 -2.8884,-2.5875 -5.2045,-5.75 z m 13.9408,0.1494 c 3.689,-1.98034 7.3822,-4.19777 8.2072,-4.92764 10.8855,-9.63025 24.1179,-10.74466 70.0968,-5.90341 30.9147,3.25511 31.9767,2.23175 18.7504,-18.06835 -1.7918,-2.75 -4.7824,-7.925 -6.6459,-11.5 -1.8635,-3.575 -5.4836,-9.55176 -8.0447,-13.28169 -2.5611,-3.72993 -7.1316,-10.53622 -10.1566,-15.12508 -9.763,-14.81027 -27.9055,-38.69528 -40.3284,-53.09323 -2.3727,-2.75 -6.1909,-7.56339 -8.4848,-10.69641 -2.2939,-3.13303 -5.9814,-7.15156 -8.1946,-8.93007 -2.2131,-1.77851 -5.8633,-5.67007 -8.1116,-8.6479 -2.2483,-2.97784 -5.5037,-6.00752 -7.2342,-6.73262 -3.5103,-1.47084 -6.5098,-4.54063 -8.692,-8.89569 -0.7999,-1.59648 -3.7928,-4.63036 -6.6508,-6.74196 -2.858,-2.1116 -6.6685,-5.67103 -8.4676,-7.90985 -1.7992,-2.23882 -5.5321,-5.69484 -8.2953,-7.68004 -2.7633,-1.9852 -7.2779,-5.70836 -10.0324,-8.2737 -2.7546,-2.56533 -7.0333,-6.04438 -9.5083,-7.73122 -2.475,-1.68683 -7.3819,-5.57719 -10.9041,-8.64524 -3.5223,-3.06805 -10.0473,-8.06817 -14.5,-11.11138 -4.4528,-3.0432 -10.1042,-7.06181 -12.5588,-8.93023 -4.9385,-3.7592 -7.356,-3.31205 -14.6536,2.71039 -1.5859,1.30882 -7.3835,4.7738 -12.8835,7.69995 -5.5,2.92615 -12.925,7.44625 -16.5,10.04467 -3.575,2.59842 -7.625,5.05189 -9,5.45217 -7.9857,2.32472 -27.8314,15.35344 -31.7352,20.83419 -4.242,5.95555 -11.2648,19.05234 -11.2648,21.00768 0,1.03901 2.5322,2.92729 6.8233,5.08827 3.7528,1.88989 8.8153,4.95629 11.25,6.81422 2.4347,1.85794 8.3309,5.94884 13.1028,9.09089 4.7719,3.14206 11.075,7.66693 14.0069,10.05526 2.9319,2.38834 8.0277,6.04255 11.3239,8.12048 3.2962,2.07793 7.0237,4.71274 8.2833,5.85514 2.5043,2.27135 -0.3398,4.90709 38.5031,-35.68213 6.9127,-7.2234 8.5676,-7.17179 10.9455,0.34132 0.9564,3.0216 3.7393,11.79381 6.1842,19.49381 4.4113,13.89292 6.0868,19.82692 11.5766,41 1.5687,6.05 4.2583,15.275 5.977,20.5 1.7187,5.225 4.8697,16.61491 7.0023,25.31092 3.8923,15.87184 4.2807,16.82513 8.9604,21.99361 1.3967,1.54249 5.0192,6.35116 8.05,10.68593 16.3129,23.33077 13.9473,21.70004 23.8035,16.40894 z M 1156.3253,294.75 c -13.5042,-19.04386 -13.353,-18.07616 -11.962,-76.52919 1.0046,-42.21425 -0.2244,-38.22304 13.6367,-44.2858 52.2114,-22.83696 126.0278,-42.20589 184.4278,-48.39256 30.4036,-3.22085 82.5947,-4.93311 83.9415,-2.75392 0.4618,0.7472 -13.3235,25.85852 -32.4123,59.04226 -6.5917,11.45888 -8.0263,17.29994 -8.6815,35.34783 -0.7072,19.47827 0.7294,17.77451 -16.4037,19.45462 -7.9045,0.77513 -24.0468,3.04784 -35.8718,5.05046 -29.6972,5.02935 -25.8832,5.80766 -35.2019,-7.1837 -10.6799,-14.88911 -9.6773,-14.0957 -16.0135,-12.67235 -39.1653,8.79793 -41.3997,10.23206 -42.1665,27.0651 -0.663,14.55211 -0.9882,15.41991 -6.4481,17.20452 -8.0269,2.62366 -39.5955,16.48665 -55.7018,24.46077 -20.0659,9.93454 -17.4399,9.41389 -21.1429,4.19196 z m 13.5655,-2.24936 c 4.4739,-2.47465 8.9161,-4.9414 9.8717,-5.48167 0.9556,-0.54027 8.0375,-3.64526 15.7375,-6.89998 7.7,-3.25471 18.3671,-7.96373 23.7046,-10.46449 5.3375,-2.50076 11.3122,-4.84843 13.2771,-5.21704 4.9377,-0.92633 5.5162,-2.61179 5.533,-16.12172 0.02,-15.88324 0.1524,-16.0978 12.002,-19.4347 5.2158,-1.4688 15.0318,-4.29291 21.8133,-6.27579 15.5995,-4.56125 16.4183,-4.55756 19.2888,0.087 1.255,2.0307 4.2719,5.93289 6.7042,8.67152 2.4323,2.73864 5.0564,6.49673 5.8313,8.35132 1.9126,4.57745 3.1397,4.8378 13.7001,2.90657 27.5288,-5.03431 44.3028,-7.58513 53.9742,-8.20785 12.6052,-0.81162 13.3214,-1.4829 12.1749,-11.41149 -1.6108,-13.9488 2.4873,-33.04275 8.893,-41.43465 1.9819,-2.59645 3.6035,-5.13918 3.6035,-5.65052 0,-0.51134 2.7714,-5.76437 6.1587,-11.6734 3.3872,-5.90904 8.552,-15.0995 11.4773,-20.42326 2.9253,-5.32376 6.6648,-11.80209 8.31,-14.39628 4.3703,-6.89125 4.6403,-6.81537 -21.5536,-6.05754 -37.8285,1.09445 -60.355,3.20669 -86.3924,8.10077 -6.875,1.29225 -16.325,2.87345 -21,3.51379 -11.5689,1.58459 -27.9884,5.24726 -43,9.5919 -6.875,1.98977 -18.125,5.12249 -25,6.96162 -13.9361,3.72805 -17.0986,4.78328 -28.2571,9.42856 -4.5734,1.90391 -7.7429,3.81204 -7.7429,4.66144 0,1.90947 -2.9975,2.99738 -3.9614,1.43774 -1.2265,-1.98455 -21.6172,5.29262 -36.0386,12.86174 -4.3598,2.28825 -4.9082,91.14071 -0.6085,98.57582 1.5904,2.75 3.9602,6.95 5.2662,9.33333 5.8574,10.68873 5.5217,10.59222 16.2331,4.66731 z m 461.886,-5.41092 c -7.3444,-4.29183 -27.4693,-12.85309 -49.3982,-21.01433 -15.8949,-5.91558 -15.3299,-5.06814 -15.3836,-23.07539 -0.039,-12.99899 0.2367,-12.81339 -31.0879,-20.94982 -20.5268,-5.33175 -19.1427,-5.51998 -23.5286,3.19982 -4.0169,7.98592 -10.1149,17.90978 -11.5862,18.85525 -0.5181,0.33289 -5.0486,-0.23706 -10.0678,-1.26655 -15.3414,-3.14666 -44.4437,-6.73467 -60.5024,-7.45932 -19.017,-0.85814 -17.7906,0.41981 -17.4812,-18.21705 0.2408,-14.50854 0.2408,-14.50854 8.0952,-28.58544 4.3199,-7.74229 12.0555,-21.72689 17.1903,-31.07689 20.9479,-38.1447 15.7433,-34.78178 47.1589,-30.47133 89.4001,12.26631 163.1316,37.0215 239.0954,80.27578 14.6085,8.31819 17.3587,5.54548 -36.0459,36.34137 -19.9864,11.52522 -24.5282,15.04182 -29.7489,23.0334 -16.9127,25.88934 -17.095,26.02867 -26.7091,20.4105 z m 10.597,-0.83972 c 0.7839,-1.5125 3.187,-4.775 5.3403,-7.25 2.1533,-2.475 5.5764,-7.26359 7.6069,-10.64131 4.7311,-7.87018 14.8868,-17.36581 22.346,-20.89357 3.2081,-1.51728 11.3219,-6.04643 18.0305,-10.06478 6.7086,-4.01835 14.0455,-8.24888 16.3042,-9.40119 2.2587,-1.1523 6.2198,-3.70884 8.8025,-5.68119 2.5827,-1.97236 6.1583,-4.28411 7.9458,-5.13724 1.7875,-0.85313 3.25,-1.82877 3.25,-2.16809 0,-4.63325 -85.1608,-46.569 -100.3603,-49.42044 -2.1052,-0.39494 -6.3728,-1.98934 -9.4836,-3.54313 -8.0255,-4.00851 -33.4306,-12.0272 -38.244,-12.07102 -1.3267,-0.0121 -4.4131,-0.9297 -6.8587,-2.03914 -2.4457,-1.10945 -6.0457,-2.40224 -8,-2.87285 -1.9544,-0.47062 -8.7856,-2.23091 -15.1805,-3.91174 -6.3949,-1.68084 -17.4199,-3.96411 -24.5,-5.07394 -15.8893,-2.4907 -23.7018,-3.81234 -33.3729,-5.6457 -10.1559,-1.92528 -29.5847,-4.41669 -34.5199,-4.4266 -4.4227,-0.009 -8.9471,5.8285 -14.7475,19.0271 -1.3379,3.04434 -5.2469,10.19427 -8.6866,15.88872 -3.4398,5.69446 -7.5443,13.22913 -9.1212,16.74371 -1.5769,3.51458 -3.9516,7.83965 -5.2772,9.61127 -7.5073,10.03327 -9.6485,16.5424 -9.6339,29.28612 0.02,17.63615 -1.5668,16.01654 16.4208,16.75876 14.4563,0.59651 44.8585,4.62373 61.4464,8.13947 5.4086,1.14632 7.7347,1.27077 8.7047,0.46571 1.8909,-1.56928 9.951,-15.71933 11.5304,-20.24219 2.5874,-7.40992 10.948,-6.4965 45.384,4.9583 10.8757,3.61769 10.2194,2.52446 11.0366,18.38535 0.8201,15.91608 0.1062,14.76437 11.4634,18.49378 4.675,1.53514 13.225,4.76177 19,7.17029 5.775,2.40852 13.875,5.71693 18,7.35204 4.125,1.6351 10.65,4.75922 14.5,6.9425 8.3505,4.7354 9.0322,4.81447 10.8738,1.261 z"
         id="path10" />
      <path
         style="fill:#212e35"
         d="m 1385.75,1382.265 c -5.7617,-0.4544 -5.7592,-0.423 -0.5701,-7.265 7.1851,-9.4739 26.2451,-37.2675 38.3808,-55.9676 6.7932,-10.4676 6.7932,-10.4676 7.5576,-24 0.4204,-7.4428 0.7908,-13.8699 0.823,-14.2824 0.032,-0.4125 2.6462,-0.7522 5.8087,-0.7548 10.3355,-0.01 57.8323,-5.2609 72.1791,-7.9818 9.0182,-1.7102 9.5342,-1.5435 13.1124,4.2366 9.4549,15.2732 9.8454,15.75 12.8985,15.75 8.4151,0 41.4058,-9.3756 47.8512,-13.5989 2.6769,-1.7539 2.6901,-2.2169 0.5876,-20.6296 -0.5781,-5.0624 -0.4347,-5.7975 1.2335,-6.3211 8.4681,-2.6582 33.6775,-13.1226 46.2122,-19.1828 8.4285,-4.0749 17.1162,-8.041 19.306,-8.8136 2.1898,-0.7726 6.5633,-3.2158 9.7189,-5.4294 7.214,-5.0603 5.9317,-5.6725 12.5663,5.9995 6.5021,11.4389 6.2523,7.4009 3.7094,59.9759 -1.9726,40.7845 -1.3603,37.4388 -7.4511,40.716 -28.2317,15.1905 -88.3786,35.3468 -132.2904,44.3329 -10.8387,2.2181 -20.0166,4.2243 -20.3952,4.4582 -2.6819,1.6576 -47.0587,7.0994 -68.9884,8.4599 -15.4762,0.9602 -51.6556,1.1333 -62.25,0.298 z m -59.75,-4.8759 c -74.7585,-10.9939 -154.3489,-37.2245 -212.5,-70.0333 -6.05,-3.4135 -15.6576,-8.8274 -21.3502,-12.031 -14.7435,-8.2973 -31.7342,-19.649 -31.1695,-20.8248 0.7831,-1.6304 24.057,-12.1059 37.7843,-17.0067 16.7614,-5.984 43.5403,-18.1065 46.0204,-20.833 1.0808,-1.1882 2.4909,-3.1799 3.1336,-4.426 0.6427,-1.2461 3.1649,-4.5134 5.6048,-7.2607 2.44,-2.7472 5.1776,-6.4527 6.0836,-8.2343 0.9061,-1.7816 1.7792,-3.3909 1.9404,-3.5761 0.1611,-0.1853 3.5222,1.7711 7.4692,4.3476 3.9469,2.5765 9.7203,5.7834 12.8298,7.1264 3.1095,1.3431 10.3786,4.8552 16.1536,7.8048 5.775,2.9495 12.525,6.0448 15,6.8784 30.0049,10.1055 29.6529,9.8149 29.1776,24.0919 -0.5325,15.9964 0.2717,16.5751 34.1361,24.5646 20.3692,4.8056 19.5103,5.1066 26.7315,-9.3669 3.5215,-7.058 4.9856,-9.0777 6.5,-8.9666 1.0752,0.079 10.5048,1.5319 20.9548,3.229 23.2282,3.7723 52.1105,7.1276 61.3545,7.1276 6.8606,0 6.8606,0 7.503,6.1467 1.7695,16.9292 3.6719,12.8806 -24.8349,52.8533 -18.8631,26.4502 -23.8318,33.691 -25.3724,36.9747 -2.0861,4.4463 -2.4026,4.4656 -23.1502,1.4144 z m 380.3563,-90.5237 c 0.3609,-10.6509 1.1683,-28.6572 1.7941,-40.0139 1.2408,-22.5176 0.6608,-25.0408 -9.8495,-42.8515 -3.8121,-6.4598 -4.736,-5.2333 15.1991,-20.1772 14.993,-11.2393 29.592,-23.2622 39.0961,-32.1974 8.3635,-7.8629 7.0422,-7.921 19.2297,0.8454 12.233,8.799 14.2111,7.7789 39.6405,-20.441 10.3612,-11.4981 10.1636,-14.7016 -1.9106,-30.9741 -3.0897,-4.1639 -3.1591,-5.1996 -0.5094,-7.5976 1.1255,-1.0186 4.349,-5.2508 7.1634,-9.405 2.8144,-4.1542 8.0018,-11.1531 11.5275,-15.5531 3.5258,-4.4 7.2691,-9.6535 8.3184,-11.6745 1.0494,-2.0209 3.4617,-5.3704 5.3606,-7.4432 1.899,-2.0728 3.9737,-4.9193 4.6105,-6.3255 8.4573,-18.6756 9.565,-19.8353 15.566,-16.297 2.728,1.6085 7.986,4.3687 11.6846,6.1339 4.8899,2.3337 7.172,4.0821 8.3643,6.4078 0.9018,1.7592 3.0157,5.2094 4.6975,7.6671 4.2669,6.2355 11.5457,23.3785 11.4441,26.953 -0.097,3.4066 2.5971,8.0784 4.6583,8.0784 1.87,0 6.0118,7.1843 15.1458,26.2721 2.6257,5.4871 2.686,5.9315 1.222,9.0015 -1.989,4.1711 -12.0166,18.2131 -16.2292,22.7264 -1.7967,1.925 -5.3023,6.2 -7.7902,9.5 -2.4879,3.3 -6.2709,7.8412 -8.4067,10.0916 -2.1357,2.2504 -8.3832,9.1273 -13.8832,15.282 -15.8317,17.7162 -40.4275,41.9538 -51.5,50.75 -1.925,1.5292 -5.525,4.6892 -8,7.0221 -6.716,6.3305 -25.0621,20.684 -39.4367,30.8543 -6.9963,4.95 -15.5606,11.112 -19.0317,13.6933 -8.6081,6.4015 -28.3719,18.2214 -46.4316,27.7688 -2.4,1.2688 -2.4,1.2688 -1.7437,-18.0967 z M 1019.5,1245.0321 c -5.5,-4.4245 -14.725,-11.9655 -20.5,-16.7577 -11.26054,-9.3443 -53.12701,-50.8668 -61.27782,-60.7744 -2.71484,-3.3 -6.87828,-8.25 -9.25208,-11 -10.61445,-12.2966 -30.29866,-37.9493 -39.13408,-51 -2.60648,-3.85 -6.41187,-9.25 -8.45641,-12 -2.04454,-2.75 -6.46545,-10.3428 -9.82425,-16.8729 -3.35879,-6.5302 -7.03483,-13.0552 -8.16898,-14.5 -3.73762,-4.7617 -20.23732,-35.1095 -19.49314,-35.8537 0.23333,-0.2333 10.7028,0.5397 23.26549,1.7179 63.53907,5.9588 65.40443,6.0375 71.34127,3.0087 4.70952,-2.4026 5.92902,-2.4793 7.40153,-0.4656 1.52525,2.0859 4.83861,-0.2571 5.08455,-3.5955 0.67196,-9.1209 17.04579,-11.6315 19.16649,-2.9389 0.33545,1.375 1.43564,3.4128 2.44487,4.5285 3.01413,3.332 4.51717,9.0061 10.3794,39.1836 3.07576,15.8334 6.69861,33.5129 8.05078,39.2879 2.62107,11.1944 8.23569,39.3271 10.97668,55 0.9138,5.225 2.2951,12.2 3.0696,15.5 0.7744,3.3 1.8822,8.25 2.4618,11 3.5866,17.0195 2.9397,17.1588 26.0677,-5.6142 10.1181,-9.9628 21.6591,-20.541 25.6466,-23.5072 3.9875,-2.9661 7.25,-5.779 7.25,-6.2509 0,-5.9758 4.4517,-6.1254 10.3885,-0.3491 3.3613,3.2704 8.1653,7.3222 10.6756,9.0039 2.5102,1.6818 6.2033,5.0582 8.2068,7.5032 2.0034,2.445 5.2004,5.1846 7.1043,6.088 1.9038,0.9035 5.8856,3.6173 8.8483,6.0306 2.9626,2.4134 6.7119,5.2228 8.3316,6.243 15.1233,9.526 14.9127,8.9412 7.4299,20.6359 -6.0151,9.4008 -6.0151,9.4008 -15.75,12.7297 -5.3543,1.8309 -16.26,5.9946 -24.235,9.2526 -7.975,3.2581 -18.1,7.2583 -22.5,8.8893 -4.4,1.6311 -12.8228,5.1968 -18.7173,7.9238 -15.745,7.2844 -14.5701,7.3759 -26.2827,-2.0465 z m 512.5,-98.6257 c -15.3642,-3.292 -31.002,-14.3525 -38.1173,-26.9602 -4.4603,-7.9032 -66.913,-20.1977 -90.8827,-17.8912 -12.185,1.1724 -26.4456,3.5125 -41.9829,6.8892 -8.5344,1.8547 -19.1132,3.9427 -23.5084,4.6401 -7.2443,1.1494 -8.2724,1.602 -11,4.8418 -24.0809,28.6041 -59.4835,34.8085 -97.202,17.0349 -27.6676,-13.0374 -52.8958,-20.9941 -77.5528,-24.4591 -57.5094,-8.0818 -71.367,-22.9151 -58.3905,-62.5019 5.1307,-15.6518 5.4814,-21.4434 2.2404,-36.9887 -8.0105,-38.42118 8.1085,-61.31415 41.057,-58.3112 9.2343,0.84162 15.0603,-1.38801 9.2465,-3.53867 -1.872,-0.69253 -1.659,-0.96966 2.0217,-2.6294 4.5683,-2.06004 10.9877,-8.50593 13.6115,-13.66767 0.9406,-1.8504 3.2642,-5.90574 5.1637,-9.01188 3.4536,-5.64751 3.4536,-5.64751 1.7379,-15.90802 -5.7466,-34.36678 7.7548,-91.38253 31.4812,-132.94446 2.6688,-4.675 5.8568,-10.525 7.0845,-13 2.8409,-5.72747 19.64,-31.18092 27.0597,-41 19.9749,-26.43456 32.8663,-48.13929 40.0912,-67.5 10.2565,-27.48451 10.9368,-33.33145 11.8091,-101.5 0.9635,-75.28968 2.5012,-83.46109 21.2067,-112.69783 42.9578,-67.14324 161.6569,-69.34401 205.071,-3.80217 19.779,29.86012 25.1717,53.74974 26.7496,118.5 1.8154,74.49434 8.5646,95.00279 48.5413,147.5 15.9697,20.97142 30.0497,40.71516 35.6567,50 2.9893,4.95 6.9105,11.36754 8.7137,14.2612 27.98,44.9003 41.3993,116.74229 28.6463,153.36256 -2.3046,6.6179 -2.0413,7.29061 4.413,11.27447 11.1806,6.90103 16.416,15.83112 20.6394,35.20475 4.0439,18.54987 7.4199,23.90283 22.0465,34.95662 33.0018,24.9408 24.958,49.9901 -23.6635,73.6907 -19.6289,9.5681 -36.5191,18.8491 -42.9885,23.6216 -7.7988,5.7532 -18.9055,14.9138 -25.7407,21.2303 -25.9237,23.9565 -54.7556,33.4117 -83.2593,27.3042 z m 29.7922,-10.9879 c 9.6398,-1.9779 21.8788,-7.6395 32.127,-14.8616 7.7317,-5.4487 9.816,-6.5556 8.5808,-4.5569 -0.3606,0.5834 0.6563,1 2.441,1 2.0524,0 3.059,-0.4936 3.059,-1.5 0,-0.8333 0.8889,-1.5 2,-1.5 1.664,0 2,-0.6667 2,-3.9685 0,-8.7501 33.1095,-32.8171 59.8731,-43.5212 35.2423,-14.0952 47.4356,-27.2382 39.9817,-43.0957 -2.2662,-4.8212 -5.2748,-7.9638 -18.5791,-19.4061 -13.2929,-11.43262 -16.5283,-17.45746 -20.7401,-38.62091 -4.7472,-23.85435 -12.7057,-30.80211 -31.3999,-27.4122 -9.1294,1.65548 -10.4286,2.31989 -17.6217,9.01162 -34.4721,32.06931 -76.2973,24.32951 -81.9203,-15.15946 -1.4219,-9.98548 -2.8369,-10.80172 -9.6995,-5.59495 -11.6857,8.86612 -15.8646,23.00909 -15.8868,53.7674 -0.018,25.0462 -3.1057,46.4136 -11.4766,79.4233 -7.8044,30.776 -7.8868,38.1578 -0.5857,52.4692 9.5961,18.8099 33.4837,28.5248 57.8471,23.526 z M 1291.5,1129.5224 c 14.1807,-5.0228 26.7126,-18.0417 29.5164,-30.6636 3.7572,-16.9133 -1.16,-31.2038 -18.7493,-54.4894 -8.775,-11.6169 -22.591,-31.9967 -30.7572,-45.3694 -33.7205,-55.22028 -49.4297,-77.15027 -57.6101,-80.4234 -16.7622,-6.70694 -29.3692,-1.58811 -41.4355,16.82418 -11.8495,18.08144 -17.3564,22.13182 -37.5588,27.62493 -28.9589,7.87399 -35.4237,17.7341 -28.1762,42.97429 4.4866,15.6252 4.0871,34.2708 -0.9952,46.4443 -11.1774,26.7734 1.6817,40.0041 43.7659,45.0304 18.0013,2.15 27.5027,4.1656 38,8.061 4.95,1.8369 13.438,4.9417 18.8623,6.8996 5.4243,1.9578 13.7699,5.3192 18.5459,7.4697 25.0033,11.2583 51.2551,15.0497 66.5918,9.6174 z m 193.8878,-31.8416 c 0.3217,-1.1994 0.6068,-6.4558 0.6337,-11.6808 0.027,-5.225 0.6921,-12.425 1.4785,-16 2.7537,-12.5192 2.5584,-13.0024 -5.25,-12.9847 -8.4171,0.019 -8.6304,0.1728 -10.3873,7.4847 -1.4417,6 -1.4417,6 -13.4022,6.7431 -6.5783,0.4087 -18.0355,1.2267 -25.4605,1.8179 -26.4812,2.1083 -38.8767,2.2415 -50.7844,0.5459 -11.0367,-1.5716 -43.319,-2.2719 -46.6049,-1.011 -1.5157,0.5816 -1.5117,17.8885 0.01,25.2882 0.6254,3.0494 7.3347,2.6346 20.7109,-1.2804 30.3207,-8.8746 73.8806,-8.773 110.6726,0.258 16.6698,4.0919 17.5001,4.1289 18.3878,0.8191 z m -55.67,-28.0289 c 19.6779,-4.4051 28.1612,-7.4733 43.6432,-15.7849 8.1736,-4.3881 14.9477,-7.8407 15.0535,-7.6726 0.1059,0.1681 0.661,1.4241 1.2337,2.7911 1.026,2.4493 1.0597,2.4274 2.304,-1.5 0.6946,-2.192 2.3136,-6.2355 3.5978,-8.9855 3.057,-6.5459 5.0625,-20.632 6.9763,-49 3.7153,-55.07062 11.7096,-73.03872 34.676,-77.93773 2.1233,-0.45293 3.3515,-1.93681 5.7327,-6.92602 9.9228,-20.79141 36.918,-23.86572 68.544,-7.80603 17.1294,8.69833 21.521,14.43501 21.521,28.1126 0,8.09256 5.5147,6.31254 7.5682,-2.44282 0.387,-1.65 1.2978,-4.125 2.024,-5.5 9.9446,-18.82771 12.5753,-40.07841 7.4897,-60.5 -1.2327,-4.95 -2.8264,-13.09471 -3.5416,-18.09935 -3.9495,-27.63775 -30.3919,-77.33938 -67.0917,-126.10699 -16.7321,-22.23395 -23.8444,-32.24662 -26.2651,-36.97612 -24.4389,-47.74706 -25.6586,-52.93388 -27.7054,-117.81754 -0.7808,-24.75 -1.8475,-47.475 -2.3705,-50.5 -6.6734,-38.59742 -9.9694,-48.17098 -21.8753,-63.53846 -20.2381,-26.12212 -40.5999,-38.63717 -67.6197,-41.56131 -4.4619,-0.48288 -12.3876,-1.34198 -17.6126,-1.90911 -53.4395,-5.8004 -105.2627,33.31106 -114.9543,86.75708 -2.4684,13.61236 -2.9265,24.49333 -1.2314,29.2518 2.1317,5.98414 2.4148,40.221 0.3624,43.82116 -1.4732,2.58419 -2.8342,22.42282 -1.8165,26.47777 0.6454,2.57157 0.6454,2.57157 10.0083,-1.86368 5.1496,-2.43939 10.1298,-4.43525 11.067,-4.43525 2.0691,0 10.1213,-5.40277 10.8388,-7.2724 0.2832,-0.73803 -1.1972,-3.88887 -3.2898,-7.00186 -8.0171,-11.92658 -7.9271,-30.38905 0.1815,-37.21201 8.5712,-7.21215 18.8443,2.76221 20.3275,19.73627 0.5515,6.31174 0.9861,7.74394 2.3418,7.71735 2.3699,-0.0465 11.7697,-3.39464 13.4535,-4.79207 2.5363,-2.10497 13.0817,-2.66195 14.9538,-0.78983 0.9977,0.99769 1.8714,1.23904 2.2527,0.62222 0.3425,-0.55422 2.4767,-1.00767 4.7427,-1.00767 6.6508,0 10.751,-1.91196 10.6037,-4.9447 -0.2867,-5.90643 0.55,-6.04198 1.0809,-0.17512 0.5838,6.45087 18.3298,16.89476 20.1689,11.86982 0.05,-0.1375 0.4084,-4.81855 0.7957,-10.40234 1.8923,-27.2815 25.3749,-33.66458 33.0021,-8.97069 3.0075,9.73731 1.9499,19.22087 -3.3223,29.78915 -3.2671,6.54909 1.4944,9.8238 14.8702,10.22696 17.6785,0.53286 34.2689,32.99162 23.1304,45.25427 -1.4251,1.56896 -3.9102,4.96533 -5.5224,7.54749 -1.6121,2.58216 -4.4193,5.45632 -6.2382,6.38702 -1.8188,0.93069 -4.882,2.92399 -6.807,4.42954 -1.925,1.50555 -8.225,5.10363 -14,7.99573 -5.775,2.89209 -14.8127,7.86256 -20.0838,11.04547 -42.9048,25.90785 -60.7497,26.06524 -93.8048,0.82731 -8.918,-6.80895 -17.5737,-13.12646 -19.2351,-14.03892 -5.1431,-2.82478 -15.1486,-10.15845 -19.2247,-14.09099 -4.8938,-4.72147 -5.3239,-4.68941 -6.7082,0.5 -3.5957,13.47928 -10.6361,32.3713 -15.3367,41.15411 -12.0641,22.54124 -14.8115,27.18732 -20.3892,34.4801 -3.2037,4.18869 -10.4888,14.36579 -16.1892,22.61579 -5.7004,8.25 -11.3334,16.35 -12.5177,18 -31.4304,43.78753 -54.7087,114.93173 -48.1418,147.13325 1.9736,9.67783 2.0585,9.75097 9.1725,7.898 9.3725,-2.44121 22.8816,-1.58024 29.4587,1.87746 1.375,0.72287 3.9366,1.58519 5.6924,1.91628 2.2948,0.43271 5.4689,2.97319 11.2883,9.03485 5.9202,6.16655 8.6013,8.30072 9.9765,7.94111 1.2361,-0.32327 3.3645,0.85355 6.2116,3.43458 4.7224,4.281 15.1874,12.31663 28.4992,21.88338 14.203,10.20719 14.1452,10.05051 4.0179,10.89411 -6.1821,0.51497 -8.7177,1.12753 -9.1316,2.20603 -0.3914,1.01994 -1.3455,1.2992 -3.0107,0.88125 -1.5279,-0.38348 -2.7374,-0.11499 -3.2407,0.71934 -0.4416,0.73215 -1.5904,1.62062 -2.5529,1.97439 -1.2847,0.47219 -1.76,1.78148 -1.7878,4.92459 -0.021,2.35476 -0.278,5.93554 -0.5716,7.95729 -0.5231,3.60207 0.6575,6.54637 4.4312,11.05127 1.3528,1.61484 1.629,1.61959 4.247,0.0731 3.389,-2.00194 5.3762,-0.82518 6.2857,3.72212 0.5797,2.89873 3.2264,4.06337 5.0622,2.22757 0.4125,-0.4125 1.05,-0.7617 1.4166,-0.77599 1.6013,-0.0624 6.1667,-3.83 6.1667,-5.08902 0,-0.76174 0.6947,-1.38499 1.5438,-1.38499 0.8491,0 1.4116,-0.64549 1.25,-1.43442 -0.1616,-0.78894 -0.025,-1.35144 0.3025,-1.25 0.328,0.10143 1.3595,-0.44901 2.2924,-1.2232 1.2202,-1.01268 2.0007,-1.10293 2.782,-0.32167 0.7804,0.78035 1.683,0.78097 3.2076,0.002 1.1669,-0.59606 2.7967,-1.40035 3.6217,-1.78731 5.0293,-2.35893 1.608,-6.48559 -5.377,-6.48559 -8.0645,0 -8.4529,-0.50288 -7.6357,-9.88623 0.7268,-8.3439 19.9342,6.91187 26.0179,20.66501 6.7663,15.29644 0.7924,33.12494 -11.7552,35.08204 -5.6072,0.8745 -5.4835,2.3701 0.8198,9.9137 2.7884,3.3371 6.1147,8.128 7.3919,10.6465 5.4951,10.8359 30.0083,21.979 62.5383,28.4284 7.3725,1.4617 38.7411,-0.2403 49.7178,-2.6975 z m 163.8554,-120.10686 c 11.1156,-3.32496 19.0003,-10.29313 23.1372,-20.44773 5.1385,-12.61295 -1.0671,-19.69782 -23.7438,-27.10821 -30.6335,-10.01057 -47.3896,3.97079 -38.4018,32.04258 4.7043,14.69321 20.6072,21.01766 39.0084,15.51336 z M 1399.123,666.1173 c 3.6426,-1.16556 11.5176,-5.10308 17.5,-8.75004 5.9823,-3.64696 17.4751,-10.12129 25.5393,-14.3874 47.3003,-25.0225 48.4484,-45.57865 3.3781,-60.4845 -9.5257,-3.15034 -18.4028,-7.03842 -28.4438,-12.45804 -33.7945,-18.24041 -43.6388,-17.69055 -74.1235,4.1402 -7.9602,5.70049 -18.0321,12.56911 -22.382,15.2636 -27.1203,16.79929 -23.8459,29.8173 13.9089,55.29719 4.95,3.34065 12.0468,8.80528 15.7706,12.14362 13.8367,12.40443 29.6221,15.38861 48.8524,9.23537 z m 538.0823,414.7068 c -1.6645,-2.9282 -5.7557,-11.0142 -9.0917,-17.9688 -3.336,-6.9546 -7.163,-13.949 -8.5044,-15.5431 -1.3413,-1.5941 -5.4159,-8.954 -9.0545,-16.3553 -4.737,-9.6356 -7.6427,-14.3088 -10.2325,-16.4569 -3.0986,-2.5702 -26.309,-16.97354 -28.6198,-17.7602 -0.4386,-0.14933 1.427,-4.53938 4.1459,-9.75566 2.7189,-5.21628 5.2717,-10.60914 5.6728,-11.98414 0.4011,-1.375 2.8564,-7.225 5.4562,-13 2.5998,-5.775 7.1055,-17.5875 10.0127,-26.25 5.2858,-15.75 5.2858,-15.75 15.8979,-15.77386 20.703,-0.0465 23.3231,-3.68829 30.1997,-41.97614 2.8504,-15.8707 3.1989,-15.18927 -11.5774,-22.63665 -12.2523,-6.17528 -11.473,-4.88408 -9.4169,-15.60411 3.7365,-19.48137 5.1641,-33.0185 5.7748,-54.75924 0.8786,-31.28457 27.868,-31.71628 60.6319,-0.96984 1.65,1.5484 6.6,4.9224 11,7.49778 4.4,2.57538 9.8,5.99702 12,7.60365 2.2,1.60663 7.9375,5.67101 12.75,9.03196 10.1423,7.08313 9.53,4.6674 6.7288,26.5482 -4.5857,35.81945 -10.2927,63.33666 -19.0366,91.78825 -17.0279,55.40717 -24.1655,72.68869 -52.6598,127.5 -8.9626,17.2405 -11.1916,21.187 -13.2729,23.5 -0.9897,1.1 -2.6946,3.4959 -3.7887,5.3241 -1.9892,3.3242 -1.9892,3.3242 -5.0155,-2 z M 891.5,1000.4846 c -13.75,-1.2703 -33.1,-3.05808 -43,-3.97282 -21.39134,-1.97652 -18.42803,0.54329 -27.91856,-23.7401 C 789.56995,893.42269 774.47056,795.50963 780.63711,713.75 c 0.78793,-10.44683 0.0537,-10.29453 11.0152,-2.28506 4.86623,3.55572 14.69769,10.55111 21.84769,15.54532 7.15,4.99421 18.85,13.32515 26,18.5132 16.15457,11.72179 14.78327,11.23041 34,12.18322 16,0.79332 16,0.79332 16.23277,9.79332 0.39526,15.28322 2.23114,35.05424 4.8047,51.74298 3.31888,21.52198 3.90978,19.22851 -6.82428,26.48758 C 877.82869,852.4151 873,856.47176 873,858.09134 c 0,5.48981 12.30939,47.42177 14.651,49.90866 1.07126,1.13772 4.72239,1.62076 15.11737,2 13.70499,0.5 13.70499,0.5 17.02471,10 1.82585,5.225 4.69341,12.875 6.37236,17 6.50535,15.98289 8.83456,22.17908 8.83456,23.50176 0,0.7559 2.96114,6.86332 6.58032,13.57203 9.19567,17.04562 9.37068,16.16166 -4.58032,23.13522 -13.46066,6.72849 -10.46259,6.51259 -45.5,3.27559 z m 1136,-226.49282 c -6.7227,-4.70793 -24.5277,-16.65035 -50,-33.53665 C 1965.5,732.5 1965.5,732.5 1947,732 c -18.5,-0.5 -18.5,-0.5 -19.7207,-17 -1.3499,-18.24668 -3.06,-29.84715 -7.3356,-49.76227 -3.2659,-15.21194 -3.2767,-15.12779 2.3526,-18.26187 18.5737,-10.34067 21.2738,-15.39115 16.6147,-31.07649 -8.0789,-27.19814 -11.7616,-36.80558 -14.1813,-36.99628 -0.6763,-0.0533 -5.1006,-0.018 -9.8317,0.0784 -17.1374,0.34927 -18.7719,-0.87378 -25.4366,-19.03287 -2.7147,-7.39674 -9.3619,-22.22362 -14.7715,-32.94862 -14.4857,-28.71884 -13.8421,-25.08088 -5.3651,-30.32507 18.8722,-11.67504 15.7577,-10.98218 41.3568,-9.20024 12.5501,0.8736 26.1135,2.02419 30.1408,2.55684 4.0273,0.53266 13.0273,1.02171 20,1.08678 21.3865,0.1996 18.7614,-2.99785 36.0271,43.88169 26.9624,73.20756 46.0431,187.68138 39.7195,238.29419 -0.8528,6.82556 -0.3715,6.78853 -9.069,0.69759 z M 871,726.07179 c -10.55393,-0.63522 -13.34434,-2.19594 -39.75585,-22.23605 -5.64071,-4.27997 -12.61571,-9.33444 -15.5,-11.23215 -9.11426,-5.99673 -24.45664,-17.00125 -27.5224,-19.74079 -5.51253,-4.92595 9.35084,-77.93219 24.30111,-119.3628 2.58008,-7.15 6.62596,-18.4 8.99084,-25 2.36488,-6.6 4.95986,-13.80783 5.76662,-16.01741 0.80676,-2.20957 3.27186,-7.60957 5.47801,-12 2.20614,-4.39042 5.67051,-11.71117 7.6986,-16.26832 4.7013,-10.56391 21.12218,-42.09171 23.00869,-44.17628 0.78781,-0.87052 3.23392,-5.02334 5.4358,-9.22848 16.72407,-31.93961 17.42092,-31.84924 32.31079,4.19049 15.21347,36.82299 19.96926,43.60294 39.53779,56.36583 15.67083,10.22076 15.05794,7.12851 5.25347,26.50583 -4.39809,8.69228 -10.05091,21.16459 -12.56183,27.71624 -2.51091,6.55166 -5.47049,14.27644 -6.57684,17.16619 -2.57679,6.73045 -3.49655,7.15255 -18.14345,8.32641 -18.73434,1.50144 -17.04875,-0.52089 -25.74814,30.892 -6.96866,25.16332 -7.26085,24.37245 13.27679,35.93662 6.52524,3.67417 6.59868,3.9256 4.31635,14.7755 -3.51268,16.69879 -6.45853,36.81295 -10.11506,69.06538 -0.67624,5.96476 1.1403,5.56115 -19.45129,4.32179 z M 956.85705,465.40923 C 942.74526,455.97727 933,442.52214 933,432.47017 c 0,-0.49155 -3.42341,-7.88593 -7.60758,-16.43195 -22.48346,-45.92167 -21.53077,-39.69039 -8.4154,-55.04316 3.05632,-3.57772 6.59851,-8.19022 7.87153,-10.25 C 926.12156,348.68528 927.49352,347 927.89735,347 928.92773,347 938,337.81813 938,336.7753 c 0,-1.94273 4.49583,-6.73393 7.39178,-7.8774 4.63008,-1.8282 6.50342,-3.795 7.64196,-8.02319 0.76041,-2.82395 2.64576,-5.1727 7.29756,-9.09119 3.44974,-2.90594 7.49112,-6.98358 8.98085,-9.06144 1.48973,-2.07786 4.83903,-5.22786 7.44288,-7 2.60386,-1.77214 5.86169,-4.51444 7.23963,-6.09399 5.53959,-6.35012 8.3262,-8.62809 10.55463,-8.62809 1.54665,0 3.45673,-1.40904 5.64421,-4.16369 6.7126,-8.45287 20.8226,-20.51878 35.0319,-29.95688 4.001,-2.65758 8.1746,-5.68641 9.2746,-6.73075 3.9347,-3.7356 10.8342,-8.14868 12.7398,-8.14868 1.0668,0 4.4868,-2.28149 7.5999,-5.06998 4.8425,-4.33745 22.7986,-15.93002 24.6745,-15.93002 0.344,0 2.5065,-1.29139 4.8056,-2.86975 4.1058,-2.81866 21.9981,-12.13025 23.3084,-12.13025 0.3675,0 0.3198,3.7125 -0.1062,8.25 -3.9416,41.99174 -2.7386,72.77757 3.3314,85.25 12.1592,24.98448 12.2175,24.55923 -4.8534,35.42163 -4.125,2.62478 -11.55,8.03303 -16.5,12.01832 -4.95,3.9853 -10.3616,7.84304 -12.0258,8.57276 -1.6642,0.72972 -4.9535,3.61288 -7.3095,6.40703 -5.2946,6.27912 -5.6673,6.27645 -15.0354,-0.10766 C 1057.728,346.76828 1049.6861,343 1046.3234,343 c -0.9103,0 -5.1006,3.53927 -9.3116,7.86505 -4.2111,4.32578 -9.649,9.30018 -12.0842,11.05424 -4.4736,3.22235 -16.9158,16.81353 -16.9235,18.48632 0,0.49808 1.0423,2.29808 2.3213,4 7.9911,10.63395 11.22,19.30746 8.8571,23.79212 -4.1214,7.82241 -4.9436,8.99639 -9.9247,14.17098 -2.7166,2.82221 -7.101,8.05629 -9.74308,11.63129 -2.64206,3.575 -6.35362,8.3 -8.24791,10.5 -1.89429,2.2 -7.44511,9.5125 -12.33515,16.25 -10.52314,14.49879 -8.11383,13.99026 -22.07461,4.65923 z m 884.93025,1.5267 c -2.358,-3.33524 -6.7671,-9.6107 -9.798,-13.94547 -3.0308,-4.33477 -6.6533,-9.14344 -8.05,-10.68593 -4.6797,-5.16848 -5.0681,-6.12177 -8.9604,-21.99361 -2.1326,-8.69601 -5.2836,-20.08592 -7.0023,-25.31092 -1.7187,-5.225 -4.4083,-14.45 -5.977,-20.5 -5.4898,-21.17308 -7.1653,-27.10708 -11.5766,-41 -2.4449,-7.7 -5.2278,-16.47221 -6.1842,-19.49381 -2.3779,-7.51311 -4.0328,-7.56472 -10.9455,-0.34132 -38.8429,40.58922 -35.9988,37.95348 -38.5031,35.68213 -1.2596,-1.1424 -4.9871,-3.77721 -8.2833,-5.85514 -3.2962,-2.07793 -8.392,-5.73214 -11.3239,-8.12048 -2.9319,-2.38833 -9.235,-6.9132 -14.0069,-10.05526 -4.7719,-3.14205 -10.6681,-7.23295 -13.1028,-9.09089 -2.4347,-1.85793 -7.4972,-4.92433 -11.25,-6.81422 -4.2911,-2.16098 -6.8233,-4.04926 -6.8233,-5.08827 0,-1.95534 7.0228,-15.05213 11.2648,-21.00768 3.9038,-5.48075 23.7495,-18.50947 31.7352,-20.83419 1.375,-0.40028 5.425,-2.85375 9,-5.45217 3.575,-2.59842 11,-7.11852 16.5,-10.04467 5.5,-2.92615 11.2976,-6.39113 12.8835,-7.69995 7.2976,-6.02244 9.7151,-6.46959 14.6536,-2.71039 2.4546,1.86842 8.106,5.88703 12.5588,8.93023 4.4527,3.04321 10.9777,8.04333 14.5,11.11138 3.5222,3.06805 8.4291,6.95841 10.9041,8.64524 2.475,1.68684 6.7537,5.16589 9.5083,7.73122 2.7545,2.56534 7.2691,6.2885 10.0324,8.2737 2.7632,1.9852 6.4961,5.44122 8.2953,7.68004 1.7991,2.23882 5.6096,5.79825 8.4676,7.90985 2.858,2.1116 5.8509,5.14548 6.6508,6.74196 2.1822,4.35506 5.1817,7.42485 8.692,8.89569 1.7305,0.7251 4.9859,3.75478 7.2342,6.73262 2.2483,2.97783 5.8985,6.86939 8.1116,8.6479 2.2132,1.77851 5.9007,5.79704 8.1946,8.93007 2.2939,3.13302 6.1121,7.94641 8.4848,10.69641 12.4229,14.39795 30.5654,38.28296 40.3284,53.09323 3.025,4.58886 7.5955,11.39515 10.1566,15.12508 2.5611,3.72993 6.1812,9.70669 8.0447,13.28169 1.8635,3.575 4.8541,8.75 6.6459,11.5 13.2263,20.3001 12.1643,21.32346 -18.7504,18.06835 -45.9789,-4.84125 -59.2113,-3.72684 -70.0968,5.90341 -2.3678,2.09477 -14.7545,8.52824 -16.4199,8.52824 -0.8281,0 -3.4348,-2.72883 -5.7928,-6.06407 z M 1157.7662,294.55191 c -0.9536,-1.31188 -2.8024,-4.33524 -4.1085,-6.71858 -1.306,-2.38333 -3.6758,-6.58333 -5.2662,-9.33333 -4.2997,-7.43511 -3.7513,-96.28757 0.6085,-98.57582 14.4214,-7.56912 34.8121,-14.84629 36.0386,-12.86174 0.9639,1.55964 3.9614,0.47173 3.9614,-1.43774 0,-0.8494 3.1695,-2.75753 7.7429,-4.66144 11.1585,-4.64528 14.321,-5.70051 28.2571,-9.42856 6.875,-1.83913 18.125,-4.97185 25,-6.96162 15.0116,-4.34464 31.4311,-8.00731 43,-9.5919 4.675,-0.64034 14.125,-2.22154 21,-3.51379 26.0374,-4.89408 48.5639,-7.00632 86.3924,-8.10077 26.1939,-0.75783 25.9239,-0.83371 21.5536,6.05754 -1.6452,2.59419 -5.3847,9.07252 -8.31,14.39628 -2.9253,5.32376 -8.0901,14.51422 -11.4773,20.42326 -3.3873,5.90903 -6.1587,11.16206 -6.1587,11.6734 0,0.51134 -1.6216,3.05407 -3.6035,5.65052 -6.4057,8.3919 -10.5038,27.48585 -8.893,41.43465 1.1465,9.92859 0.4303,10.59987 -12.1749,11.41149 -9.6714,0.62272 -26.4454,3.17354 -53.9742,8.20785 -10.5604,1.93123 -11.7875,1.67088 -13.7001,-2.90657 -0.7749,-1.85459 -3.399,-5.61268 -5.8313,-8.35132 -2.4323,-2.73863 -5.4492,-6.64082 -6.7042,-8.67152 -2.8705,-4.64451 -3.6893,-4.6482 -19.2888,-0.087 -6.7815,1.98288 -16.5975,4.80699 -21.8133,6.27579 -11.8496,3.3369 -11.9821,3.55146 -12.002,19.4347 -0.017,13.50993 -0.5953,15.19539 -5.533,16.12172 -1.9649,0.36861 -7.9396,2.71628 -13.2771,5.21704 -5.3375,2.50076 -16.0046,7.20978 -23.7046,10.46449 -7.7,3.25472 -14.7819,6.35971 -15.7375,6.89998 -19.5043,11.02727 -19.4659,11.0141 -21.9963,7.53294 z M 1631.5,284.989 c -3.85,-2.18328 -10.375,-5.3074 -14.5,-6.9425 -4.125,-1.63511 -12.225,-4.94352 -18,-7.35204 -5.775,-2.40852 -14.325,-5.63515 -19,-7.17029 -11.3572,-3.72941 -10.6433,-2.5777 -11.4634,-18.49378 -0.8172,-15.86089 -0.1609,-14.76766 -11.0366,-18.38535 -34.436,-11.4548 -42.7966,-12.36822 -45.384,-4.9583 -1.5794,4.52286 -9.6395,18.67291 -11.5304,20.24219 -0.97,0.80506 -3.2961,0.68061 -8.7047,-0.46571 -16.5879,-3.51574 -46.9901,-7.54296 -61.4464,-8.13947 -17.9876,-0.74222 -16.4007,0.87739 -16.4208,-16.75876 -0.015,-12.74372 2.1266,-19.25285 9.6339,-29.28612 1.3256,-1.77162 3.7003,-6.09669 5.2772,-9.61127 1.5769,-3.51458 5.6814,-11.04925 9.1212,-16.74371 3.4397,-5.69445 7.3487,-12.84438 8.6866,-15.88872 5.8004,-13.1986 10.3248,-19.03598 14.7475,-19.0271 4.9352,0.01 24.364,2.50132 34.5199,4.4266 9.6711,1.83336 17.4836,3.155 33.3729,5.6457 7.0801,1.10983 18.1051,3.3931 24.5,5.07394 6.3949,1.68083 13.2261,3.44112 15.1805,3.91174 1.9543,0.47061 5.5543,1.7634 8,2.87285 2.4456,1.10944 5.532,2.02706 6.8587,2.03914 4.8134,0.0438 30.2185,8.06251 38.244,12.07102 3.1108,1.55379 7.3784,3.14819 9.4836,3.54313 15.1995,2.85144 100.3603,44.78719 100.3603,49.42044 0,0.33932 -1.4625,1.31496 -3.25,2.16809 -1.7875,0.85313 -5.3631,3.16488 -7.9458,5.13724 -2.5827,1.97235 -6.5438,4.52889 -8.8025,5.68119 -2.2587,1.15231 -9.5956,5.38284 -16.3042,9.40119 -6.7086,4.01835 -14.8224,8.5475 -18.0305,10.06478 -7.4592,3.52776 -17.6149,13.02339 -22.346,20.89357 -2.0305,3.37772 -5.4536,8.16631 -7.6069,10.64131 -2.1533,2.475 -4.5564,5.7375 -5.3403,7.25 -1.8416,3.55347 -2.5233,3.4744 -10.8738,-1.261 z"
         id="path9" />
    </g>
  </g>
</svg>
